<?xml version="1.0" encoding="UTF-8" standalone="no"?>
<!-- Created with Inkscape (http://www.inkscape.org/) -->

<svg
   xmlns:dc="http://purl.org/dc/elements/1.1/"
   xmlns:cc="http://creativecommons.org/ns#"
   xmlns:rdf="http://www.w3.org/1999/02/22-rdf-syntax-ns#"
   xmlns:svg="http://www.w3.org/2000/svg"
   xmlns="http://www.w3.org/2000/svg"
   xmlns:sodipodi="http://sodipodi.sourceforge.net/DTD/sodipodi-0.dtd"
   xmlns:inkscape="http://www.inkscape.org/namespaces/inkscape"
   version="1.0"
   width="90.928535mm"
   height="150.51758mm"
   id="svg2116"
   inkscape:version="0.92.2 (5c3e80d, 2017-08-06)"
   sodipodi:docname="england.svg">
  <metadata
     id="metadata400">
    <rdf:RDF>
      <cc:Work
         rdf:about="">
        <dc:format>image/svg+xml</dc:format>
        <dc:type
           rdf:resource="http://purl.org/dc/dcmitype/StillImage" />
        <dc:title />
      </cc:Work>
    </rdf:RDF>
  </metadata>
  <sodipodi:namedview
     pagecolor="#ffffff"
     bordercolor="#666666"
     borderopacity="1"
     objecttolerance="10"
     gridtolerance="10"
     guidetolerance="10"
     inkscape:pageopacity="0"
     inkscape:pageshadow="2"
     inkscape:window-width="3840"
     inkscape:window-height="2004"
     id="namedview398"
     showgrid="false"
     units="mm"
     inkscape:zoom="1.5999999"
     inkscape:cx="237.8355"
     inkscape:cy="259.40037"
     inkscape:window-x="-16"
     inkscape:window-y="-16"
     inkscape:window-maximized="1"
     inkscape:current-layer="svg2116"
     fit-margin-top="0"
     fit-margin-left="0"
     fit-margin-right="0"
     fit-margin-bottom="0" />
  <defs
     id="defs2118" />
  <path
     inkscape:connector-curvature="0"
     id="path4771"
     style="display:inline;fill:#aebcab;fill-opacity:1;stroke:#0e0e05;stroke-width:1.48000002;stroke-miterlimit:4;stroke-dasharray:none;stroke-opacity:1"
     d="m 263.72892,504.19359 c -3.20601,0.59765 -2.43874,5.65558 -6.6197,4.10367 -1.47439,-2.24078 -6.27644,-3.81314 -6.76614,-3.7161 1.20462,-2.64162 4.08352,-1.67382 4.86358,-2.83706 2.15897,-3.31445 4.92733,0.4188 7.67928,0.25487 0.0774,0.74942 1.69042,1.51819 0.84298,2.19462 z" />
  <path
     id="EngBox"
     style="opacity:1;fill:#aebcab;fill-opacity:1;fill-rule:nonzero;stroke:#000000;stroke-width:1.47793651;stroke-linecap:butt;stroke-linejoin:miter;stroke-miterlimit:4;stroke-dasharray:none;stroke-opacity:1"
     d="m 208.79258,306.11304 c 3.6172,-0.33007 -2.67397,2.22527 0.46941,1.67903 -0.42679,3.23816 -5.33769,-1.76725 -6.89031,1.69316 1.61275,0.70408 0.59799,2.95039 -1.16565,1.51182 -1.23245,-0.34857 -3.50194,4.00638 -3.11469,6.02103 -3.64114,2.95924 -3.23106,7.82836 -5.18513,11.42892 0.90618,3.92814 6.81792,7.15414 6.16843,11.80018 0.67316,1.90768 3.83407,5.82863 4.57599,2.68667 0.84159,-5.22213 1.57517,2.1595 -0.0434,2.53131 -0.25946,1.94831 0.5955,3.02447 2.08797,4.21563 0.34215,0.44727 2.02589,-2.1244 2.82739,-3.77527 0.72022,-3.45654 1.36721,-0.26151 2.98413,0.0777 0.57127,-0.95702 4.74555,-3.45212 3.04482,-1.5461 2.30595,2.96559 0.43402,4.63415 -1.69627,6.78979 -0.0403,2.52192 2.12806,1.26884 1.33964,3.32579 0.93374,1.4253 -2.82823,1.46925 -4.70656,1.85737 -1.7681,4.11003 -1.53591,11.98621 4.95879,8.94957 -1.81542,1.58564 -6.01335,4.38813 -7.10773,8.24135 1.89114,3.13588 2.14309,7.64591 5.5593,9.70978 1.28257,2.65377 5.70934,-0.95896 4.28896,1.65861 -2.9098,4.46635 -7.15228,-1.83636 -7.55149,-5.1229 -5.91703,-0.54098 -3.28702,6.2325 -2.45983,7.76204 1.36201,1.27496 -0.0277,0.0517 1.28528,0.98906 1.31291,0.93739 0.27335,0.19218 0.27335,0.19218 0,0 2.41069,1.97703 2.93435,3.12099 0.52367,1.14396 -1.50119,0.27733 -1.39646,1.1093 0.10473,0.83196 0.62839,0.65864 1.67575,2.4959 1.04733,1.83726 2.09468,4.85315 2.09468,4.85315 l 2.51361,0.41598 0.41893,2.91189 c 0,0 -0.90768,1.52528 -1.67572,1.38662 -0.76804,-0.13866 -0.34911,-1.45595 -1.39646,-1.94127 -1.04735,-0.48531 -1.85028,0.27732 -2.7929,0 -0.94259,-0.27732 -0.31422,-1.07462 -0.97753,-1.10928 -0.66331,-0.0347 -0.76804,0.5893 -1.67572,0.97062 -0.90769,0.38132 -1.11718,-1.10929 -1.95504,0.55465 -0.83786,1.66394 -1.7387,5.35887 -1.39646,6.1011 0.13786,0.29901 4.46864,2.70389 4.60828,2.91189 0.50352,0.74992 -3.30417,4.78006 -4.60828,6.7944 -0.6284,0.97063 0.0737,1.99017 0.97753,2.07993 0.34911,0.0347 2.05977,-2.21858 2.65325,-1.94126 0.59349,0.27732 0.13489,2.47476 -0.27928,3.05055 -0.26378,0.36671 -2.65326,0.31198 -4.18936,0.97063 -1.53611,0.65864 -1.95504,1.66393 -1.95504,1.66393 0,0 2.80592,4.85655 5.02722,4.57582 1.92012,-0.24265 2.82781,-0.38131 2.65325,0 -0.99858,2.18141 -3.72961,5.54205 -5.02722,9.29032 -0.38402,1.10929 0.62842,3.60519 1.8154,6.23976 1.18696,2.63457 1.41246,3.66959 2.93253,4.2985 0.41894,0.17333 2.23433,-0.93596 2.65326,-0.83196 1.49983,0.37231 1.0369,3.75087 4.43019,3.84094 1.84926,0.0491 0.53685,9.08973 0.65086,10.8305 3.06201,-1.5366 4.92448,-5.99052 8.56061,-7.20435 1.09048,-1.97512 2.27867,0.002 0.19153,0.49234 -3.34576,2.60788 -5.49637,7.00375 -7.85605,10.59962 -3.12305,0.12218 -5.14671,4.76546 -7.03814,5.38191 -0.1506,2.44285 -1.79259,2.01714 -1.32237,4.25018 1.24721,2.77237 -0.83297,4.50451 -3.68013,3.64534 -3.31625,1.68957 -7.18428,1.39766 -10.10048,-0.69108 -2.71965,0.37235 -5.75334,-0.77374 -8.66508,-0.20732 -3.18096,0.58907 -9.87777,-0.29359 -10.77921,2.47934 -2.3789,1.45847 1.62026,4.03733 -1.27005,5.94335 -1.9034,3.77969 -5.08435,0.29744 -7.66452,0.69108 -0.0245,1.46842 0.35667,2.99644 -0.47657,4.25366 -0.83324,1.25723 -1.02839,-4.55053 -0.0946,-0.35228 0.93383,4.19824 -1.09479,7.31994 -3.69195,9.90322 -3.09019,0.48598 -1.13975,5.37196 -5.09826,4.87189 -2.12444,-0.32122 -1.19181,0.92219 -2.19209,1.36503 -2.49053,-0.59737 -2.40061,3.04991 -3.09743,5.71005 -3.41648,-0.14044 -1.7191,3.09054 -4.25418,4.3884 -1.37388,2.64244 -4.84158,3.02227 -6.09854,5.40791 -2.24777,-1.76809 -4.46826,0.64104 -7.07293,1.57206 -0.92901,1.33131 -1.47856,4.12886 -0.13057,5.13148 4.30735,1.77413 3.09938,-5.05546 6.52505,-3.2481 4.21074,0.23329 5.06458,3.92398 6.77699,6.66897 0.6264,-0.47963 1.74889,-2.46111 3.26253,-2.48795 2.80094,-2.01381 -2.25389,-3.19857 0.11303,-4.13793 1.55706,-1.52035 0.008,-2.45305 1.52255,-4.24159 0.26363,-0.0174 0.6829,2.70824 0.59159,3.07532 1.09159,-1.80014 2.18959,-2.35243 3.65394,-3.42088 2.75779,0.18023 2.74137,-1.84575 3.23636,-3.74044 0.46269,-2.47575 2.46603,-0.0802 3.16675,-0.68251 3.86553,1.01175 6.60133,-2.43595 10.48329,-1.01921 1.27338,2.80111 3.90161,-0.0253 1.25203,-0.65759 3.32731,-1.25814 3.18198,4.29574 6.65637,2.63576 2.67538,-1.12289 3.52922,4.12217 5.76781,3.49856 2.30094,1.09853 4.03395,-0.14708 3.92371,-2.88516 1.89838,-1.1696 1.53618,-3.0593 3.09716,-2.20291 2.179,-2.45142 -0.40813,-2.10809 -0.57434,-4.53519 3.10384,-0.25626 -0.30429,-3.15412 2.23609,-4.92414 1.96881,-1.1461 -1.11108,-7.12814 1.07878,-3.65392 1.38418,4.25185 4.01836,-1.81645 6.51613,-1.80567 4.31988,0.61673 8.14309,-3.54057 12.2756,-0.65653 3.14282,2.16283 9.07098,4.26733 8.27365,8.44868 0.47439,-0.36158 0.42818,-1.13062 0.97439,-1.47727 -1.41397,-1.68846 -0.88419,-5.23705 2.57517,-3.81811 3.93011,-0.17388 6.7021,2.13545 10.18735,1.6586 1.48885,-1.49772 1.0501,-2.38397 0.75695,-3.66276 -2.16007,0.13021 -2.25723,-1.22902 -3.47132,-0.63082 -1.38697,-0.48487 1.37305,-1.41231 2.75807,-1.21798 0.68625,3.25779 3.15368,-1.80346 5.74164,0.12965 0.27282,-0.22861 0.52589,-1.63898 2.74053,-1.16628 2.81097,1.96822 3.63725,-0.30904 6.18568,-1.44271 4.25251,0.2206 3.65117,-3.49386 0.82657,-5.05351 -4.04315,-2.20898 1.25612,-0.51776 2.33156,1.31307 1.79148,0.5537 4.50083,4.89539 5.63752,2.26345 -1.74805,-1.7432 -0.66675,-2.19462 1.33965,-1.53781 -2.39254,1.74707 0.96074,4.10451 1.04398,0.49234 2.52449,-2.38592 0.0649,2.86082 0.84382,2.19433 2.64031,1.28073 0.55651,-4.89925 2.1055,-2.01299 -0.22827,0.1407 3.09271,-0.15426 0.86136,1.43414 -1.63418,0.83566 4.76197,4.56449 3.92344,1.52896 1.0799,-0.88487 7.00361,-1.44907 9.9702,-2.0904 6.20907,-2.80941 12.25444,1.6365 18.10437,2.79005 2.23051,-4.21396 7.20434,-4.25709 11.37081,-5.71003 2.03174,-3.46096 5.28815,-2.71349 8.58686,-1.91763 -1.14086,-4.08543 2.82127,-7.456 6.603,-7.71447 3.23274,-0.69717 7.12165,-3.40595 5.3505,-7.524 -2.18151,-3.02696 2.06152,-2.7942 1.44432,-5.84825 -0.93347,-0.41603 -2.07906,0.0586 -3.05373,0.16392 -5.20072,-0.47105 -9.99692,3.19117 -14.97242,1.21825 1.80652,0.51693 6.13891,-0.89178 2.04426,-2.77319 -1.98775,-1.08999 -4.12695,-0.72316 -4.21938,0.29385 -0.65089,0.0492 -0.74554,2.35494 -2.79259,1.24395 -3.37249,0.66621 -0.34689,-2.94182 1.80094,-2.09067 2.73804,-1.6025 -3.52589,-2.66981 -5.07209,-2.16836 -0.67595,0.3309 -4.1147,2.76629 -2.6882,1.15771 0.97829,-3.00291 4.68708,-1.79821 6.429,-3.22212 2.59493,0.53186 5.69489,0.28749 7.52562,-2.37568 2.63446,-2.02737 -0.87138,-1.19171 -1.35718,-0.95896 -3.04845,-2.0188 1.05568,0.23608 2.04426,-1.86593 1.93736,-2.90588 -0.49944,-5.58813 -3.16648,-3.1356 -1.03563,0.51638 -2.6534,0.64658 -2.70574,-0.76904 3.63002,0.81438 4.11165,-3.11736 7.39477,-3.18758 1.69376,3.05268 5.99554,1.0723 7.68206,-1.50297 1.83741,-3.03608 -0.59354,-0.10256 -1.87917,-1.55522 1.11637,-1.26524 4.11218,-3.68958 0.18263,-3.03194 -3.30707,0.43815 -2.25278,-1.39019 0.22634,-0.47519 3.47576,1.14748 -0.58436,-3.33352 1.8182,-1.15743 1.20684,4.47686 4.1197,-0.88542 5.1417,-2.99766 3.58907,-0.39309 4.62638,-4.55205 4.44542,-7.89581 0.70741,-4.34113 3.72689,-8.19381 3.85409,-12.44814 -0.5501,-5.73657 -0.9365,-12.60017 -7.1077,-15.48034 -3.33435,-4.19877 -8.68791,-4.23968 -13.27588,-5.94336 -2.88668,-0.77788 -0.25139,0.39725 -1.03535,0.65654 -3.44655,-0.49454 -6.05735,-0.54789 -9.85719,-0.40608 -3.4638,-1.21383 -5.20628,2.41769 -5.67204,5.63235 -1.65979,1.50464 -1.22271,4.62089 -3.07989,1.6846 -4.03091,1.74817 -4.42372,-6.16339 -8.76948,-3.56767 0.48441,-1.88031 3.47605,-4.43843 5.26335,-6.77265 3.36331,-2.00305 5.41926,-5.03416 3.92372,-9.01869 -1.7976,-5.47092 -3.22299,-11.19561 -8.58685,-13.27771 -1.73886,-3.11348 -4.95879,-3.25447 -7.10773,-6.34059 -0.72272,-3.78937 -3.79231,-2.11915 -6.42037,-2.12495 -1.9716,2.07298 -3.50222,-0.49455 -5.0373,-0.31127 -3.27199,1.65585 -2.04955,-0.98355 0.64366,-1.14002 3.22549,2.96118 8.24024,-2.50671 10.71824,0.96753 1.93096,2.81797 4.72187,4.196 7.85606,2.98881 3.1701,-0.21922 1.1456,4.66871 2.43597,2.52247 0.11163,-4.34363 -4.35746,-7.67301 -6.23775,-11.47205 -2.84381,-3.65668 -6.30205,-11.68048 0.14784,-13.3811 -1.1108,-1.90851 -6.36275,-1.41866 -5.2809,-4.46636 -3.49164,-1.28321 -4.027,-4.1562 -5.05456,-7.33409 -1.83769,-2.36379 -1.99638,-5.64784 -5.39392,-6.28889 -3.16258,-3.57956 -8.0515,-3.36421 -11.72744,-5.88281 -2.7873,-2.31293 -1.46214,2.09537 -3.63668,0.59599 1.17204,-1.62406 -0.42457,-2.95067 0.64392,-4.25018 -4.48078,-2.10312 -4.66592,-7.81454 -5.29815,-12.03349 -1.5426,-3.36089 -3.23469,-6.11252 -4.17594,-9.62325 0.6456,-2.81714 -2.24026,-5.04465 -1.18319,-7.96491 -1.30234,-2.17582 -0.92984,-4.43264 -0.83519,-7.01454 -0.90228,-2.83815 -0.63419,-5.35177 -2.89699,-7.36007 -2.46937,-0.55039 -1.60439,0.053 -2.43596,-1.88336 -0.67038,0.54209 -2.26169,0.0827 -2.7667,-2.09039 -1.82405,-1.64811 -3.82759,-3.77763 -5.0628,-5.96478 -1.23522,-2.18715 -0.45853,-0.15737 -1.23127,1.06923 -0.77275,1.22661 -1.37574,1.35277 -1.68147,1.95991 -0.29834,0.59248 -0.57735,0.96549 -0.98745,1.37267 -0.33266,0.33033 -0.91537,0.71283 -1.28366,1.07854 -0.3473,0.34484 -0.39944,1.08295 -0.6912,1.37268 -0.43046,0.42742 -0.77377,0.89489 -1.28369,1.27463 -0.50923,0.37924 -0.63056,0.64159 -0.78995,1.27462 -0.11185,0.44432 0.0157,1.04297 0.0987,1.37269 0.12269,0.48735 0.16885,1.02163 0.39496,1.47072 0.27979,0.55563 1.04663,1.13731 1.38243,1.47072 0.23411,0.23247 0.37358,1.17455 0.69121,1.56878 0.25643,0.31829 0.10022,1.18241 0.19749,1.56878 0.1473,0.58507 0,1.09366 0,1.66682 0,0.73971 -0.75702,1.01314 -1.28369,1.27462 -0.49389,0.24522 -0.74053,0.94776 -0.98744,1.27464 -0.37126,0.49155 -0.714,0.40351 -1.28366,0.68633 -0.46177,0.22926 -0.83382,1.00226 -1.38242,1.27463 -0.0589,0.0292 -0.13166,0 -0.19747,0 -0.59232,0 -1.15359,0.75327 -1.48118,1.07853 -0.46665,0.46336 -1.03572,0.72284 -1.67865,0.88244 -0.37466,0.093 -0.94587,0.71215 -1.28365,0.98048 -0.4564,0.36255 -1.04173,0.96945 -1.48118,1.07854 -0.45067,0.11187 -0.47878,0.72504 -0.59245,1.17657 -0.13722,0.54506 -0.25167,0.892 -0.49374,1.37269 -0.25231,0.50107 -0.53243,0.76324 -0.78995,1.27462 -0.33563,0.66658 -0.84579,1.23204 -1.3824,1.76488 -0.52458,0.52088 -0.95819,0.76986 -1.5799,1.07853 -0.70429,0.34966 -0.88121,0.70899 -1.57993,0.88244 -0.41896,0.104 -0.95581,1.30834 -1.28365,1.56876 -0.37403,0.29712 -0.76612,0.36177 -1.28368,0.49025 -0.64279,0.15957 -0.78592,0.68634 -1.5799,0.68634 -0.27873,0 -0.90668,2.08179 -1.13477,2.25166 -0.22809,0.16987 2.07457,0.24367 -0.0873,0.59016 m 35.83089,-33.56576 c -1.53619,1.40899 -2.80039,-1.83746 -0.0849,-0.21811 z m 69.15859,127.76153 c 2.27201,0.88238 -2.46937,0.22889 -0.23162,-0.0127 z m 15.28897,49.72233 c -0.65144,1.12537 -0.78284,-0.60622 0,0 z m -7.26919,4.49788 c -3.22578,1.66745 -2.30317,-1.37389 0.36302,-0.40968 0.36081,0.32288 -0.12527,0.4141 -0.36302,0.40968 z m -202.81993,79.17478 c 2.5735,0.61173 -1.36609,0.66456 0,0 z m -0.21631,1.6948 c 1.41425,1.35844 -1.8441,1.17182 0,0 z m -1.16036,-1.2768 c 1.95295,1.05595 -0.75055,1.15545 0,0 z m 46.70902,-53.60957 c 0.83018,2.44037 -1.26837,1.76946 0,0 z m 39.40084,-134.64891 c -1.44237,2.23083 3.78619,6.29884 0.2397,3.68045 -0.34548,-0.88956 -1.76225,-3.52316 -0.2397,-3.68045 z m 2.39727,-21.26945 c 0.12389,-0.018 0.27895,0.14596 0.46994,0.61341 -0.90089,2.96089 -1.00669,-0.53545 -0.46994,-0.61341 z m 5.45489,8.84592 c 0.0635,0.002 0.17567,0.0608 0.35663,0.19018 2.05345,1.19116 -0.8519,8.3945 0.1392,3.47258 1.09938,-0.90698 -0.93987,-3.6788 -0.49583,-3.66276 z"
     inkscape:connector-curvature="0"
     sodipodi:nodetypes="ccccccccccccccccccccccccccccccsccccscccccccccccccccccccccccccccccccccccccccccccccccccccccccccccccccccccccccccccccccccccccccccccccccccccccccccccccccccccccccccccccccccccccccccccccccccccccccsccccsccccccccccccsscccccccccccccccccccccccccccccc" />
</svg>
