<?xml version="1.0" encoding="UTF-8" standalone="no"?>
<!-- Created with Inkscape (http://www.inkscape.org/) -->

<svg
   xmlns:dc="http://purl.org/dc/elements/1.1/"
   xmlns:cc="http://creativecommons.org/ns#"
   xmlns:rdf="http://www.w3.org/1999/02/22-rdf-syntax-ns#"
   xmlns:svg="http://www.w3.org/2000/svg"
   xmlns="http://www.w3.org/2000/svg"
   xmlns:sodipodi="http://sodipodi.sourceforge.net/DTD/sodipodi-0.dtd"
   xmlns:inkscape="http://www.inkscape.org/namespaces/inkscape"
   version="1.0"
   width="90.928535mm"
   height="150.51758mm"
   id="svg2116"
   inkscape:version="0.92.2 (5c3e80d, 2017-08-06)"
   sodipodi:docname="northern_ireland.svg">
  <metadata
     id="metadata400">
    <rdf:RDF>
      <cc:Work
         rdf:about="">
        <dc:format>image/svg+xml</dc:format>
        <dc:type
           rdf:resource="http://purl.org/dc/dcmitype/StillImage" />
        <dc:title />
      </cc:Work>
    </rdf:RDF>
  </metadata>
  <sodipodi:namedview
     pagecolor="#ffffff"
     bordercolor="#666666"
     borderopacity="1"
     objecttolerance="10"
     gridtolerance="10"
     guidetolerance="10"
     inkscape:pageopacity="0"
     inkscape:pageshadow="2"
     inkscape:window-width="3840"
     inkscape:window-height="2004"
     id="namedview398"
     showgrid="false"
     units="mm"
     inkscape:zoom="1.5999999"
     inkscape:cx="237.8355"
     inkscape:cy="259.40037"
     inkscape:window-x="-16"
     inkscape:window-y="-16"
     inkscape:window-maximized="1"
     inkscape:current-layer="svg2116"
     fit-margin-top="0"
     fit-margin-left="0"
     fit-margin-right="0"
     fit-margin-bottom="0" />
  <defs
     id="defs2118" />
  <path
     id="path4780-2"
     style="fill:#aebcab;fill-opacity:1;fill-rule:nonzero;stroke:#000000;stroke-width:1.47793651;stroke-linecap:butt;stroke-linejoin:miter;stroke-miterlimit:4;stroke-dasharray:none;stroke-opacity:1"
     d="m 113.40186,295.51962 c -0.93986,0.0149 -1.80373,0.21561 -2.47077,0.67394 -3.13445,1.0828 -5.74024,3.10243 -9.40449,2.89372 -3.259743,-2.54735 -2.173723,0.91805 -3.523673,3.17043 -0.40339,3.86899 -3.77477,2.52579 -6.44653,2.52247 -0.10023,-0.13712 -0.17539,-0.27644 -0.22634,-0.42322 l -0.348,0.285 c -0.26976,-0.0533 -0.54732,0.12108 -0.74804,0.28529 -0.46548,0.51057 -0.84661,-0.31625 -1.34856,0.19847 -0.97578,-0.35383 -1.28284,0.76075 -1.73997,1.35619 -0.12946,0.48901 -0.8686,0.87243 -0.70462,1.35647 1.00752,0.24879 -0.31625,0.74554 0.22605,1.19198 -0.0729,0.61535 -0.5476,0.88874 -0.92204,1.26137 0.0331,0.69247 -0.32795,1.40623 -0.0348,2.07327 -0.0654,0.73753 -0.24416,1.64285 -0.90479,2.11638 0.0114,0.69855 -0.42483,1.17983 -1.02645,1.45985 -0.36414,0.61452 -0.37528,1.6072 -0.60913,2.36712 -0.29092,0.52412 0.23413,1.668 -0.73079,1.54637 -0.56431,-0.36766 -1.19933,-0.1736 -1.80957,-0.19018 -0.7951,-0.49289 -1.17734,0.53738 -1.78341,0.8293 -0.83463,0.17001 -1.38669,1.43995 -2.305402,0.82073 -0.77283,-0.40607 -1.21909,-1.46759 -2.1751,-1.55494 -0.88837,0.0464 -0.7848,1.24507 -1.12222,1.77941 -0.61943,0.3132 -0.49165,0.95785 -0.9137,1.36503 0.61025,0.56946 1.46632,0.95868 1.68792,1.83996 0.70963,-0.0998 1.48329,-0.12606 2.14894,0.22473 0.661742,0.0204 1.089922,1.12455 1.696542,0.45778 0.4059,-0.71154 0.87055,0.4962 0.39143,0.70823 -1.05456,0.75715 -2.431512,1.14803 -3.010292,2.4188 -0.0821,0.61397 -1.12334,0.45584 -1.05262,0.99351 -0.93402,0.13987 -1.88502,-0.0337 -2.82739,0.0777 -0.46103,-0.18991 -0.69627,-0.83677 -1.17456,-0.15536 -0.48469,0.42378 -1.27867,0.80139 -1.34855,1.46843 0.22801,0.71651 -0.40367,1.16711 -1.03535,1.05404 -0.40479,0.71652 -1.21687,0.90754 -1.99221,1.01922 -0.28813,0.30794 0.98274,0.83124 0.17401,1.14029 0.46185,0.44257 0.98747,0.89427 1.34855,1.45128 0.74025,0.84672 1.29314,2.0611 2.47076,2.36711 0.83797,0.005 0.89142,0.82488 1.12222,1.4253 0.5618,0.79835 1.19348,1.75426 2.25333,1.90906 0.9279,0.8868 0.44126,2.38895 0.99193,3.47285 1.41815,0.46441 3.035072,0.33559 4.515032,0.65653 0.3647,0.34721 0.39532,1.29455 1.04398,0.66511 0.83101,0.36572 0.45796,1.43414 1.10495,1.90048 0.81515,-0.19792 0.85106,0.92744 1.60078,0.82931 0.60969,-0.27699 1.09549,0.0965 1.62695,0.33698 0.77394,-0.12827 1.03563,-0.97858 1.62667,-1.40817 0.22689,-0.41299 1.01698,-1.01119 1.22689,-0.29385 0.12249,0.57112 -1.08435,0.81466 -0.1829,1.08861 0.50361,0.28804 1.3658,-0.54016 1.41814,0.37152 0.41203,0.31237 0.7333,0.92634 1.28758,0.38867 0.81069,0.094 1.28619,-0.71624 1.40061,-1.41673 0.60078,-0.43842 0.0234,-1.07035 0.10468,-1.60691 0.6083,-0.21009 0.82934,-0.77402 0.88725,-1.37333 0.52422,0.0636 0.87137,-0.29607 1.40952,-0.23331 0.75501,-0.0829 0.37138,-0.89537 0.40869,-1.33905 0.33714,-0.61811 -0.22384,-1.03746 -0.56543,-1.41673 0.41676,-0.83566 -1.30457,-0.62613 -0.77422,-1.33021 0.45184,-0.33199 0.85134,-0.67616 0.86999,-1.26137 0.75807,-0.1338 1.34772,-0.64741 1.79204,-1.24395 0.53702,-0.98246 1.39058,-1.73768 1.88808,-2.73837 0.82711,-0.46606 1.37472,0.84423 2.20963,0.69109 0.47884,0.30795 0.71408,0.99738 1.252783,1.31306 0.51809,0.29192 0.13948,1.32662 0.84382,1.22682 0.71631,0.4235 0.76392,1.45488 1.01782,2.18549 -0.4936,0.72399 0.37917,1.2564 0.67009,1.82281 -0.0417,1.16435 0.5941,2.29082 1.61804,2.86774 0.4162,0.12025 0.81375,1.16711 1.14839,0.50975 0.30985,-0.97195 1.21074,-0.0191 1.7834,0.12108 0.75307,0.4926 1.05902,1.60526 0.88753,2.4705 -0.40424,0.78728 -0.96298,1.68873 -0.4872,2.60041 0.62862,0.50146 0.67845,1.87534 1.72272,1.62378 0.31876,-0.48929 1.03369,-0.40912 1.52227,-0.6651 0.58908,0.21009 1.06431,-0.0357 1.40952,-0.51831 0.26893,-0.53684 0.826,-0.39779 1.07878,0.0777 0.25891,0.77568 0.96465,-0.13905 1.27895,0.29385 0.4382,-0.37706 1.40034,-0.37181 1.19182,-1.15744 0.13474,-0.8387 1.07683,0.10366 1.36581,-0.53573 0.32155,-0.55093 0.95016,-0.47519 1.16565,0.12108 l 0.43512,0.285 c 0.0947,-0.11941 0.26866,-0.23082 0.5568,-0.3284 0.77088,1.40456 5.16647,1.0792 3.25361,2.55702 2.51614,0.9233 6.18541,-2.23802 6.58602,-4.99297 -0.19794,-2.70215 0.4304,-5.19642 3.81041,-4.86359 2.81096,1.65723 3.94543,-0.30712 5.49832,-2.86801 0.58046,-3.32136 -1.84299,-4.18964 -4.2976,-1.92647 -0.14393,-0.46745 3.34827,-4.42296 1.33101,-5.67549 -0.28703,-1.77664 -0.83157,-2.20097 -1.58351,-3.48998 0.0245,-3.39767 4.31597,0.84091 4.38473,2.55701 0.0451,2.68115 -1.41926,4.80416 0.62639,7.18731 1.29427,0.0495 1.72857,-2.44203 1.61832,-3.90464 1.76113,-2.33781 -0.13558,-3.59034 -0.3132,-6.01246 -1.13474,-2.07187 -1.19766,-7.35621 -4.57627,-6.10755 -2.90479,-0.54762 -5.73329,1.00594 -7.31653,3.37776 -1.79342,-3.98011 3.83045,-5.09415 5.88112,-7.15275 2.15089,-2.37099 -3.66926,-7.16851 -2.08797,-3.46401 1.93903,2.30271 1.4858,1.55246 -0.69599,0.63912 -0.69933,-2.60291 -2.04816,-5.60804 -4.18458,-7.6882 -2.65339,0.136 1.19155,-5.68378 -2.90561,-3.86152 0.89671,-3.34237 0.0328,-10.13327 -5.08964,-7.45518 -1.56403,-0.87546 -4.005,-1.72605 -6.07238,-1.69315 z m -0.68736,20.88824 c 0.8686,3.7338 -1.98302,0.96807 0,0 z m -0.47857,3.32578 c 0.34884,-0.0116 0.62779,0.37402 0.61777,1.38218 2.04537,1.83 4.81876,-2.01687 6.37694,0.26787 -1.14588,2.04285 -3.51002,4.54265 -0.89616,5.66691 -2.59493,1.3291 -1.91675,3.52095 -3.06235,4.75108 -1.74778,-0.12108 -2.83797,-2.16697 -5.13279,-0.71707 -3.71103,-2.67561 3.52115,-4.52883 1.04398,-8.00776 -0.8285,-1.38439 0.28508,-3.3175 1.05261,-3.34321 z m -37.122445,9.96023 c 0.82099,-0.0359 1.625832,0.15425 2.236082,0.63939 -0.01,1.33407 0.1559,2.70547 1.09604,4.2242 1.90674,-0.0246 1.62946,5.62296 0.47856,1.4687 -1.79454,-2.05336 -5.581842,-3.93616 -7.621092,-3.67161 0.1083,-1.42281 2.00473,-2.58134 3.81041,-2.66068 z m 7.456002,12.3359 c 0.92789,-0.0163 0.83519,1.50823 1.96604,2.07326 0.25362,2.19241 2.52031,4.27783 -0.009,3.23097 0.74722,-1.18784 -3.02923,-3.78301 -3.02756,-4.87216 0.46799,-0.30131 0.81014,-0.42737 1.07016,-0.43207 z"
     inkscape:connector-curvature="0"
     sodipodi:nodetypes="cccccccccccccccccccccccccccccccccccccccccccccccccccccccccccccccccccccccccccccccccccccccccccccccccccccccccccccccccccccccccccc" />
</svg>
