<?xml version="1.0" encoding="UTF-8" standalone="no"?>
<!-- Created with Inkscape (http://www.inkscape.org/) -->

<svg
   xmlns:dc="http://purl.org/dc/elements/1.1/"
   xmlns:cc="http://creativecommons.org/ns#"
   xmlns:rdf="http://www.w3.org/1999/02/22-rdf-syntax-ns#"
   xmlns:svg="http://www.w3.org/2000/svg"
   xmlns="http://www.w3.org/2000/svg"
   xmlns:sodipodi="http://sodipodi.sourceforge.net/DTD/sodipodi-0.dtd"
   xmlns:inkscape="http://www.inkscape.org/namespaces/inkscape"
   version="1.0"
   width="90.928535mm"
   height="150.51758mm"
   id="svg2116"
   inkscape:version="0.92.2 (5c3e80d, 2017-08-06)"
   sodipodi:docname="republic_of_ireland.svg">
  <metadata
     id="metadata400">
    <rdf:RDF>
      <cc:Work
         rdf:about="">
        <dc:format>image/svg+xml</dc:format>
        <dc:type
           rdf:resource="http://purl.org/dc/dcmitype/StillImage" />
        <dc:title />
      </cc:Work>
    </rdf:RDF>
  </metadata>
  <sodipodi:namedview
     pagecolor="#ffffff"
     bordercolor="#666666"
     borderopacity="1"
     objecttolerance="10"
     gridtolerance="10"
     guidetolerance="10"
     inkscape:pageopacity="0"
     inkscape:pageshadow="2"
     inkscape:window-width="3840"
     inkscape:window-height="2004"
     id="namedview398"
     showgrid="false"
     units="mm"
     inkscape:zoom="1.5999999"
     inkscape:cx="237.8355"
     inkscape:cy="259.40037"
     inkscape:window-x="-16"
     inkscape:window-y="-16"
     inkscape:window-maximized="1"
     inkscape:current-layer="svg2116"
     fit-margin-top="0"
     fit-margin-left="0"
     fit-margin-right="0"
     fit-margin-bottom="0" />
  <defs
     id="defs2118" />
  <path
     style="display:inline;opacity:1;fill:#aebcab;fill-opacity:1;stroke:#151510;stroke-width:1.48000002;stroke-miterlimit:4;stroke-dasharray:none;stroke-opacity:1"
     d="m 86.535377,289.11797 c -1.35457,0.10773 1.11411,1.26112 1.55859,1.54101 -1.53813,0.23829 0.83928,2.16186 2.08398,3.15039 -2.02309,0.66564 -1.99622,-0.48163 -2.80273,-1.38281 -1.52198,1.92372 -4.21289,0.42476 -4.46289,2.13672 -2.39254,2.72731 1.95007,4.67206 1.08398,7.73828 1.74527,3.45985 -2.68113,3.64457 -4.20117,6.42578 -2.21242,-0.0105 4.75047,-4.49625 0.21094,-3.37891 0.33018,-1.45376 4.94751,-3.54721 1.43555,-6.18164 -2.47356,-0.54568 0.18189,-6.21995 -2.57422,-4.79687 -0.84438,0.96089 -5.145192,2.18411 -2.433602,3.64258 0.996102,0.49233 1.180092,1.25583 0.980472,-1.31446 0.98804,0.99655 1.82411,3.36865 0.76953,5.88282 0.75251,-2.40002 -2.235002,-3.8033 -3.640622,-4.84961 1.31124,-2.81384 0.40516,-2.1681 -1.45313,-0.92774 0.8981,1.17762 1.93504,4.392 -0.78906,4.15039 2.13029,-2.0821 -0.37143,-0.30812 0.0879,-1.96093 -1.56209,-0.0904 -0.94865,-2.30665 -2.81836,-2.27735 -0.34075,2.56506 -2.59852,3.06285 -4.23632,4.62305 0.36247,-1.33768 0.62084,-2.12051 -1.36524,-0.89258 -3.04983,-1.94031 -2.9721,2.47668 -3.3457,3.02734 1.35996,1.8383 -2.53073,1.13147 -2.16992,3.4668 -2.67317,2.6e-4 0.40499,2.65294 0.47265,3.13477 -3.68708,-0.22887 -0.58543,3.99484 0.89258,2.1875 2.63446,1.08057 -0.62981,0.50661 -0.91016,1.96093 3.59493,1.27576 -0.86458,0.67544 -2.45117,0.57813 -3.52504,0.54567 -0.95143,1.64676 0.92774,3.16992 3.11526,2.06553 -5.17313,-1.49763 -1.61133,0.2793 3.41731,2.41908 -3.84117,-1.47794 -5.18164,0.73437 -1.16537,1.65334 -3.81911,2.412 -2.90625,3.92188 1.03174,2.3768 5.35077,3.88414 8.36914,2.29492 -0.80428,2.30296 4.46955,-1.39995 2.08398,1.45313 -3.00584,2.62364 0.79009,0.59642 1.87305,-0.99805 2.55372,-3.19393 0.51481,2.47391 3.15039,-0.0176 1.97298,-2.2455 4.77156,0.18528 2.43359,0.45508 -0.72634,0.45696 -3.16567,3.98357 -3.76367,6.19726 -2.06486,1.15107 -5.46694,0.15844 -5.41015,1.64649 -0.9485,2.34527 -3.05518,2.68449 -5.14649,3.67578 -1.37834,3.46732 2.54463,0.28444 4.41211,2.11914 -0.59995,0.67008 -3.27526,-0.44123 -0.5957,1.10156 4.27255,1.88446 -5.05234,0.31633 -1.75196,2.18946 2.90144,2.06081 0.80401,2.96483 -1.11914,0.96289 -1.255,-3.44602 -4.7661,-0.65822 -7.23047,-1.64649 -2.23914,-2.40192 -5.74206,-1.19667 -5.93554,2.03125 -0.56125,2.2228 -1.07313,2.66428 -2.83594,0.80664 -0.89893,-0.74914 0.51547,-3.17377 -0.80664,-3.25781 -0.49692,-0.0462 -2.6424,-3.68455 -4.06055,-1.18945 -3.58352,-1.30726 -7.76443,0.0271 -11.85351,-1.94336 -3.09799,0.65655 -1.13549,2.66033 0.0351,2.58984 1.64421,2.28361 -0.14335,0.15222 -1.73242,0.73633 -0.30708,1.81119 -1.48456,4.08233 -3.1875,2.08398 0.6996,0.26757 3.69079,-1.4362 0.54297,-1.80468 -1.19906,-2.59793 -1.78843,-1.22779 -3.50195,0.19336 -0.18263,0.46993 0.013,1.32833 -0.76953,1.17187 2.19209,0.8376 -0.13758,3.07914 -0.52539,5.51563 0.60774,2.7345 2.06003,0.41831 1.45312,-0.26172 0.059,-1.29649 0.10997,-2.77797 1.75,-2.78516 -1.53535,-3.14198 2.9584,-0.42453 1.57617,0.45508 0.18318,0.25597 -0.10363,1.4684 0.83985,2.20703 0.42734,0.51723 -3.2229,1.76665 -0.45508,3.01172 1.27868,-0.47411 2.92328,-3.6779 2.43359,-1.87305 0.15061,1.54887 -2.58767,2.97632 -0.49023,4.6211 1.25417,1.33685 0.83239,2.326 2.11914,2.39843 0.50194,3.08417 -0.10671,0.78286 -1.66406,0 -2.01865,-1.10216 -3.50189,5.54855 -0.47266,4.11524 2.53786,-1.38162 6.56664,-2.0453 8.42187,-0.98047 0.3338,1.38578 -0.90321,1.90019 -1.17382,2.92383 2.49276,1.00429 0.98064,2.78141 -2.06446,2.08203 -3.1431,0.0735 -7.66269,0.442 -6.30273,4.74609 1.92233,3.20611 -0.38276,4.07037 -3.60742,3.44922 0.83992,1.5873 0.9315,2.17611 -1.62891,1.64453 0.72606,0.88597 -4.9041204,0.92099 -1.4531204,1.24414 0.28731,1.6329 2.7454804,3.09051 2.3457004,4.44532 -1.47995,-0.87244 -4.4959404,1.79835 -1.80274,1.6289 1.78146,-1.08417 2.68832,1.14494 4.55274,1.78516 1.21603,-0.44174 3.31375,-4.24534 2.625,-1.11914 1.87834,-1.22322 1.52909,-0.82503 2.3125,-0.10547 0.0665,1.50851 -3.62017,1.17567 -3.08203,3.34375 0.95684,0.21646 2.76512,1.27845 4.28906,1.06836 0.56487,-1.34293 4.18457,-5.59369 2.87109,-1.73438 -0.40089,2.08322 2.35395,-2.71903 1.92578,0.6836 -1.19682,0.1562 -1.66192,3.91473 -0.57617,4.16601 1.14615,-1.30034 1.1494,-2.84088 1.33008,-0.0508 4.83768,0.82653 10.59962,-0.23723 15.35352,-1.4375 4.37888,-0.33173 -1.93233,2.06781 1.01562,2.78516 3.28424,-1.0665 -0.2844,0.87147 0.92774,2.85351 -0.27088,0.57915 -2.03781,-2.23733 -3.97461,-0.70117 3.58713,0.59018 1.14911,0.83848 -1.04883,0.33399 1.04037,0.90255 -1.76129,2.10449 -3.69531,0.20898 -1.68179,0.55895 -2.39989,3.56507 -3.67578,5.18359 0.0409,1.63344 -4.16777,5.0442 -1.57618,4.72657 4.56207,-0.66455 -0.47242,2.35937 -0.36718,4.06054 -1.18236,1.50076 -0.91643,5.73731 -3.85157,4.58789 -2.54342,2.97666 -5.59502,6.63052 -9.78711,8.38672 1.81876,0.38727 6.17832,-0.0617 6.6875,-1.97851 2.41091,-0.13793 3.7235,-1.25606 3.85157,-2.80078 0.72271,3.16711 5.31181,2.86405 7.8789,1.45312 -1.64921,0.98272 -1.67807,3.26746 0.41992,1.22461 3.07071,-0.16449 5.67059,-3.12581 6.21485,-5.90039 1.56264,-3.24891 3.71915,0.85829 2.1543,2.50391 1.64921,-1.09578 8.16584,0.28955 4.34179,1.20898 -2.63864,-2.14375 -5.16279,2.10833 -6.96875,1.60938 -2.46464,0.0177 -6.79926,3.28577 -9.61133,1.97851 -2.13892,1.28292 -5.36743,-0.671 -7.35351,0.94531 -2.18429,1.61163 2.29445,4.37021 -0.54297,3.37891 -2.12945,1.35537 -4.56891,2.66614 -7.19531,2.88867 0.2191,1.68074 4.37758,0.99172 2.90625,4.25586 -2.70517,2.27532 -0.38083,2.25214 2.25781,2.45117 0.598,2.61673 -2.482,-0.41407 -3.04492,1.55664 -3.77755,1.58895 -4.01179,-2.89414 -5.04297,-3.36133 0.77477,1.08197 -0.84604,3.64373 -3.1171904,3.37891 0.8911404,-2.81109 -2.46159,-2.8134 -4.13086,-0.40234 -2.74414,-0.089 -0.86791,3.48845 -2.81836,3.02929 -1.04537,-2.63995 -3.00993004,2.65464 -1.08594,3.67579 2.86749,-0.38783 1.68215,-1.82758 4.53516,-0.66407 -0.84995,-1.1483 0.0737,-1.04761 1.45313,-0.56054 1.41954,1.70561 6.1360004,-2.5517 7.5625004,0.36718 -0.47355,-1.18894 1.72105,-2.71514 3.3789,-1.01562 3.83964,-0.53933 -1.02311,2.11449 -1.75,0.33398 -0.49276,1.18094 -1.19293,4.73654 -1.75195,1.89063 -0.40924,2.52026 -4.50783,2.14908 -6.6347704,3.62305 -0.96103,0.46663 -3.06372,1.80524 -2.48632,2.52148 3.80734,2.8766 -3.6571,1.92711 -2.66016,4.21875 1.09215,0.44892 1.44808,1.57616 1.3125,3.1875 1.70183,-1.14224 4.54705,-5.60859 4.37695,-0.50781 -2.94237,1.33713 1.9715404,0.71642 1.3476604,2.55664 2.11525,-1.21136 5.52231,-3.32903 7.26562,-3.1875 1.25947,-0.0547 4.50216,-2.80137 7.84375,-2.92383 -0.50836,1.50491 -4.93089,1.37676 -5.84765,3.83398 0.73691,1.60528 -1.35677,0.31667 -2.1875,1.92579 -0.33408,-0.51167 -1.73448,-0.28827 -3.15235,1.05078 1.85662,0.75135 -0.39696,2.78237 -2.60937,2.27539 -0.0855,0.67615 1.51417,2.60921 -1.38281,2.5039 -1.5829704,1.85541 0.44275,0.54653 2.17187,0.71875 3.07683,-0.0199 4.2518,-3.18622 7.92969,-2.75 2.80595,-0.53076 6.53559,-1.6823 6.35547,-4.20117 0.21492,2.81354 3.33798,0.42557 2.5039,2.52149 -2.00138,2.38758 -6.64026,2.86582 -9.10351,5.19921 -2.19376,1.83248 -1.28424,2.18043 0.99805,0.73633 1.11303,-0.34529 6.53625,-3.29705 4.65624,-1.73437 -1.44042,3.11182 -7.22842,3.76768 -6.6875,6.49609 0.66343,0.38314 2.78116,0.33294 3.11719,-1.0332 1.41091,-3.08446 2.11443,0.65693 3.5,-1.1211 0.86136,-0.97942 3.91341,-0.47839 3.8711,-2.3457 1.97883,0.98353 -0.0566,2.93975 1.95898,3.95703 2.28062,-1.15106 2.59002,-1.54026 4.16797,-0.68359 0.41564,-2.2886 2.28506,-0.88916 2.99414,-2.94141 -1.38113,-1.82448 2.46398,0.42479 3.32617,-0.875 1.45518,2.33448 2.15507,1.38242 3.62305,-0.33203 1.58074,-1.65281 2.95605,0.70145 4.76367,0.19336 -0.89476,-2.56669 2.70273,-4.4358 4.02539,-1.80469 0.0423,-0.10949 0.82972,-3.44145 0.54297,-4.04297 1.54538,1.96104 2.44662,-0.17271 4.6582,-0.56054 1.74693,-1.23181 2.81999,-3.76764 1.17188,-5.65625 0.37583,-2.14707 -3.30284,0.2275 -2.09961,-1.82031 1.55428,1.55825 6.56413,-0.99728 5.79492,1.08593 -4.69876,2.90698 -0.0952,3.64868 1.89063,2.24024 3.50807,0.59432 1.81068,-2.28198 4.62109,-2.74805 3.5025,0.49786 0.0395,-1.77031 1.62891,-1.73438 0.19459,-4.09262 4.327972,0.37429 4.884762,-2.74804 2.76753,-0.16696 3.6208,-1.74731 4.86719,-3.51953 -1.68346,0.24825 -2.72998,-3.03706 -0.38477,-1.33008 2.61081,-3.25833 7.7613,-1.72516 10.94141,-2.88867 1.74972,-0.24381 0.80722,-1.2295 2.31055,-0.94532 -1.80233,1.95854 1.93581,2.11483 2.80273,0.2793 0.65479,-1.1439 0.1189,-3.11659 -0.49023,-5.32226 0.56097,0.63885 2.995593,3.4312 2.51953,5.44531 -2.53535,2.98992 1.347383,-0.37578 2.224613,-1.08594 0.12053,-2.00332 -0.47609,-1.86699 1.73242,-3.51758 -0.71659,2.07852 -1.35832,2.68016 1.48828,2.01367 2.58908,1.08169 4.58808,2.57929 6.79297,0.31446 -0.84716,1.6788 2.52305,-0.53599 1.97851,0.83984 1.01503,1.67131 3.50904,-3.36356 0.56055,-3.78125 -0.32962,-0.62087 -0.2205,-1.24399 0,-1.85547 -0.45239,0.69497 -2.25584,0.61126 -1.75,-1.57617 1.73163,-0.81187 2.49883,0.91003 2.22266,-2.24023 2.06737,-3.62214 5.87581,-6.93849 3.86914,-11.4336 1.7731,-2.83871 1.87986,-5.80295 3.18554,-8.7539 1.01477,-1.58481 4.18959,-5.20546 1.9961,-6.5293 -0.2216,-3.59201 0.30754,-7.44567 -1.78516,-10.55859 0.91314,-3.45545 -1.94036,-3.57197 -3.34375,-6.19727 0.73691,-2.80773 3.85268,-0.43218 4.72657,-1.59375 -0.0774,-0.40693 -0.60674,-0.40162 -0.92774,-0.47266 -3.01586,-1.17486 -0.23238,-4.89087 0.1582,-7.33593 -1.4599,-2.53437 -5.00914,-4.046 -4.84961,-7.98243 0.89893,-2.88515 -0.20208,-3.61994 0.13868,-6.21484 -2.43681,-0.31955 -4.87568,-2.95446 -3.42969,-6.02344 9.48024,0.84996 2.42385,-3.30923 3.36133,-4.95507 0.0608,-0.0766 0.17034,-0.149 0.30664,-0.21876 l -0.11133,-0.0723 c -0.21549,-0.59627 -0.84447,-0.67202 -1.16602,-0.12109 -0.28898,0.63939 -1.23049,-0.30355 -1.36523,0.53515 0.20852,0.78563 -0.75321,0.78115 -1.19141,1.1582 -0.3143,-0.43289 -1.02038,0.48076 -1.27929,-0.29492 -0.25278,-0.47549 -0.8092,-0.61301 -1.07813,-0.0762 -0.34521,0.48261 -0.82108,0.72767 -1.41016,0.51758 -0.48857,0.25598 -1.20272,0.17673 -1.52148,0.66601 -1.04427,0.25156 -1.09599,-1.12354 -1.72461,-1.625 -0.47578,-0.91168 0.084,-1.81232 0.48828,-2.5996 0.17149,-0.86525 -0.13365,-1.97811 -0.88672,-2.47071 -0.57266,-0.14018 -1.4753,-1.09304 -1.78515,-0.12109 -0.33464,0.65736 -0.73224,-0.38952 -1.14844,-0.50977 -1.02394,-0.57692 -1.65889,-1.70283 -1.61719,-2.86718 -0.29092,-0.56641 -1.16352,-1.10023 -0.66992,-1.82422 -0.2539,-0.73061 -0.30127,-1.76206 -1.01758,-2.18555 -0.70434,0.0998 -0.32566,-0.93464 -0.84375,-1.22656 -0.538703,-0.31569 -0.775063,-1.00456 -1.253903,-1.3125 -0.83491,0.15314 -1.38188,-1.15747 -2.20899,-0.69141 -0.4975,1.00069 -1.35165,1.75583 -1.88867,2.73828 -0.44432,0.59655 -1.03295,1.11034 -1.79102,1.24414 -0.0186,0.58521 -0.41925,0.92973 -0.87109,1.26172 -0.53035,0.70408 1.19215,0.49441 0.77539,1.33008 0.34159,0.37927 0.90159,0.79791 0.56445,1.41602 -0.0373,0.44368 0.34681,1.25694 -0.4082,1.33984 -0.53815,-0.0628 -0.88593,0.29602 -1.41015,0.23242 -0.0579,0.59931 -0.27842,1.1649 -0.88672,1.375 -0.0813,0.53656 0.49531,1.16705 -0.10547,1.60547 -0.11442,0.70049 -0.5897,1.51197 -1.40039,1.41797 -0.55428,0.53767 -0.87508,-0.0763 -1.28711,-0.38867 -0.0523,-0.91168 -0.91436,-0.085 -1.41797,-0.37305 -0.90145,-0.27395 0.30608,-0.51678 0.18359,-1.08789 -0.20991,-0.71734 -1.00162,-0.11807 -1.22851,0.29492 -0.59104,0.42958 -0.85106,1.27799 -1.625,1.40625 -0.53146,-0.24047 -1.01727,-0.61293 -1.62696,-0.33594 -0.74972,0.0981 -0.78641,-1.028 -1.60156,-0.83007 -0.64699,-0.46634 -0.27446,-1.53467 -1.10547,-1.9004 -0.64866,0.62946 -0.67827,-0.31685 -1.04297,-0.66406 -1.47996,-0.32094 -3.097472,-0.19184 -4.515622,-0.65625 -0.55067,-1.0839 -0.0643,-2.58585 -0.99219,-3.47265 -1.05985,-0.1548 -1.69015,-1.11182 -2.25195,-1.91016 -0.2308,-0.60042 -0.28508,-1.42078 -1.12305,-1.42578 -1.17762,-0.30601 -1.73045,-1.52047 -2.4707,-2.36719 -0.36108,-0.55701 -0.88776,-1.00859 -1.34961,-1.45117 0.80873,-0.30904 -0.46196,-0.83268 -0.17383,-1.14063 0.77534,-0.11167 1.5874,-0.30105 1.99219,-1.01757 0.63168,0.11306 1.26316,-0.33818 1.03515,-1.05469 0.0699,-0.66704 0.86492,-1.04497 1.34961,-1.46875 0.47829,-0.68141 0.7128,-0.0337 1.17383,0.15625 0.94237,-0.1114 1.89411,0.0617 2.82813,-0.0781 -0.0707,-0.53767 0.97063,-0.38017 1.05273,-0.99414 0.57878,-1.27077 1.955212,-1.66082 3.009772,-2.41797 0.47912,-0.21203 0.0153,-1.42052 -0.39063,-0.70898 -0.60662,0.66676 -1.03552,-0.43663 -1.697262,-0.45703 -0.66565,-0.35079 -1.43881,-0.32441 -2.14844,-0.22461 -0.2216,-0.88128 -1.07725,-1.27038 -1.6875,-1.83984 0.42205,-0.40718 0.29268,-1.05204 0.91211,-1.36524 0.33742,-0.53435 0.23467,-1.7329 1.12304,-1.7793 0.95602,0.0874 1.40296,1.14861 2.17579,1.55469 0.918712,0.61922 1.470052,-0.65031 2.304682,-0.82031 0.60607,-0.29192 0.98811,-1.32297 1.78321,-0.83008 0.61024,0.0166 1.24623,-0.17821 1.81054,0.18945 0.96492,0.12163 0.43955,-1.0208 0.73047,-1.54492 0.23385,-0.75992 0.24524,-1.75267 0.60938,-2.36718 0.60162,-0.28002 1.03679,-0.76239 1.02539,-1.46094 0.66063,-0.47353 0.8389,-1.37772 0.9043,-2.11524 -0.29316,-0.66704 0.0683,-1.38175 0.0352,-2.07422 0.37444,-0.37263 0.84898,-0.64636 0.92188,-1.26171 -0.5423,-0.44644 0.78291,-0.94262 -0.22461,-1.19141 -0.16398,-0.48404 0.57366,-0.86646 0.70312,-1.35547 0.45713,-0.59544 0.76446,-1.71125 1.74024,-1.35742 0.50195,-0.51472 0.88413,0.31331 1.34961,-0.19727 0.16887,-0.13815 0.39188,-0.2762 0.61914,-0.28711 -0.0559,-0.0968 -0.11652,-0.19341 -0.15039,-0.29101 -0.35714,-3.27478 13.982333,-10.66521 4.90039,-10.06836 -3.07767,-1.66137 -4.49692,-5.29095 -8.73633,-5.16406 -0.12603,-0.003 -0.24172,-0.007 -0.33203,0 z m 4.31836,15.52343 c 0.0282,0.0488 0.0426,0.10054 0.0762,0.14649 1.17058,10e-4 2.46382,0.24193 3.59375,0.20703 -0.96737,-0.0441 -2.01051,-0.21366 -2.9668,-0.21484 -0.10023,-0.13712 -0.17561,-0.2751 -0.22656,-0.42188 l -0.34766,0.2832 c -0.0428,-0.008 -0.0861,-0.002 -0.1289,0 z m -15.740242,25.05274 c -1.80568,0.0793 -3.70225,1.23734 -3.81055,2.66015 2.03925,-0.26455 5.826562,1.61852 7.621102,3.67188 1.1509,4.15426 1.42822,-1.49335 -0.47852,-1.46875 -0.94014,-1.51873 -1.1057,-2.89054 -1.0957,-4.22461 -0.61025,-0.48514 -1.415342,-0.67457 -2.236332,-0.63867 z m 7.455082,12.33594 c -0.26002,0.005 -0.60232,0.13032 -1.07031,0.43164 -0.002,1.08915 3.77456,3.6852 3.02734,4.87304 2.52931,1.04686 0.26339,-1.03806 0.01,-3.23047 -1.13085,-0.56503 -1.03891,-2.09051 -1.9668,-2.07421 z"
     id="Ireland"
     inkscape:connector-curvature="0"
     sodipodi:nodetypes="ccccccccccccccccccccccccccccccccccccccccccccccccccccccccccccccccccccccccccccccccccccccccccccccccccccccccccccccccccccccccccccccccccccccccccccccccccccccccccccccccccccccccccccccccccccccccccccccccccccccccccccccccccccccccccccccccccccccccccccccccccccccccccccccccccccccccccccccccccccccccccccccc" />
</svg>
