<?xml version="1.0" encoding="UTF-8" standalone="no"?>
<!-- Created with Inkscape (http://www.inkscape.org/) -->

<svg
   xmlns:dc="http://purl.org/dc/elements/1.1/"
   xmlns:cc="http://creativecommons.org/ns#"
   xmlns:rdf="http://www.w3.org/1999/02/22-rdf-syntax-ns#"
   xmlns:svg="http://www.w3.org/2000/svg"
   xmlns="http://www.w3.org/2000/svg"
   xmlns:sodipodi="http://sodipodi.sourceforge.net/DTD/sodipodi-0.dtd"
   xmlns:inkscape="http://www.inkscape.org/namespaces/inkscape"
   version="1.0"
   width="90.928535mm"
   height="150.51758mm"
   id="svg2116"
   inkscape:version="0.92.2 (5c3e80d, 2017-08-06)"
   sodipodi:docname="scotland.svg">
  <metadata
     id="metadata400">
    <rdf:RDF>
      <cc:Work
         rdf:about="">
        <dc:format>image/svg+xml</dc:format>
        <dc:type
           rdf:resource="http://purl.org/dc/dcmitype/StillImage" />
        <dc:title />
      </cc:Work>
    </rdf:RDF>
  </metadata>
  <sodipodi:namedview
     pagecolor="#ffffff"
     bordercolor="#666666"
     borderopacity="1"
     objecttolerance="10"
     gridtolerance="10"
     guidetolerance="10"
     inkscape:pageopacity="0"
     inkscape:pageshadow="2"
     inkscape:window-width="3840"
     inkscape:window-height="2004"
     id="namedview398"
     showgrid="false"
     units="mm"
     inkscape:zoom="1.5999999"
     inkscape:cx="237.8355"
     inkscape:cy="259.40037"
     inkscape:window-x="-16"
     inkscape:window-y="-16"
     inkscape:window-maximized="1"
     inkscape:current-layer="svg2116"
     fit-margin-top="0"
     fit-margin-left="0"
     fit-margin-right="0"
     fit-margin-bottom="0" />
  <defs
     id="defs2118" />
  <g
     id="g4418"
     transform="translate(-508.4002,-33.230084)"
     style="fill:#aebcab;fill-opacity:1">
    <path
       id="path4780-2-3"
       style="fill:#aebcab;fill-opacity:1;fill-rule:nonzero;stroke:#000000;stroke-width:1.47793651;stroke-linecap:butt;stroke-linejoin:miter;stroke-miterlimit:4;stroke-dasharray:none;stroke-opacity:1"
       d="m 757.99816,105.56655 c -0.37111,2.22806 -2.76977,2.72896 -0.85914,-0.0608 0.16454,-0.21065 1.24444,-0.34637 0.85914,0.0608 z m -21.84714,9.14446 c -0.18402,2.07713 -2.69542,2.26262 -1.22939,-0.0301 0.49888,0.053 1.84075,-1.37804 1.22939,0.0301 z m -0.70295,5.69041 c -2.57599,-1.15025 -2.97382,4.67258 -3.41842,1.35232 -1.36053,2.95094 -1.83352,-0.89316 -3.68875,2.34168 -1.84493,3.22184 -1.00418,-2.12164 1.57795,-2.55178 -1.49722,-2.37927 4.06792,-3.30864 0.83519,-0.91665 0.63836,2.49316 5.94737,-5.24811 4.69403,-0.22557 z m -3.98301,8.78731 c 0.20044,1.61244 0.9265,1.97512 -1.59298,2.25764 -0.28062,-3.39683 -1.35802,0.24907 -2.41258,-0.23911 0.7113,-2.02682 2.96603,-2.21314 0.60301,-4.00914 2.00416,-0.25653 2.50612,0.40415 2.09604,1.88584 0.26197,0.31348 1.94933,-0.74969 1.30651,0.10477 z m -7.3079,1.98867 c -0.34716,2.58328 -0.1481,3.42834 -2.96993,2.64299 -0.95768,-1.30228 0.36387,-2.46856 1.87222,-1.61217 0.26753,-0.47878 0.34744,-1.86123 1.09771,-1.03082 z m 3.23274,6.63775 c -0.0376,2.70464 -3.09159,1.50104 -3.87416,4.26843 -1.72272,-1.28625 -4.10384,-1.21493 -3.54955,-4.38757 -3.01002,1.03387 -3.96297,2.32896 -6.83657,2.35136 -2.60162,-1.46871 1.1481,-6.80556 -1.36916,-5.68987 -0.95935,0.48018 0.29093,1.94777 -0.84214,3.15993 -1.99081,2.0893 -2.96408,-3.96739 -1.95713,-5.4137 -1.20267,-4.3743 4.54705,-5.73353 7.0991,-3.01977 1.43597,0.23912 0.6882,2.16034 2.77644,2.73587 -0.56625,1.55219 -2.23886,1.2459 -3.50277,3.4325 0.0417,1.1953 2.505,0.91002 3.05428,-0.47713 1.62528,1.83857 2.39253,-0.80553 3.37166,1.32689 10e-4,1.80097 2.23969,-0.75688 3.10105,0.46192 -1.74109,0.79613 -1.93095,2.69745 0.63447,1.35536 0.0821,-0.92937 1.70489,-0.7989 1.89448,-0.10422 z m -4.9265,5.84246 c -3.18179,1.19502 -1.90868,-1.49635 -0.55679,-0.92054 -0.76754,1.27824 1.03368,0.11777 0.55679,0.92054 z m -0.64978,1.60248 c -1.73608,0.89676 0.31933,6.79781 -2.63641,3.36339 0.55819,-2.03401 -1.64114,-2.47133 0.27004,-3.39296 -5.42509,0.20096 3.92845,-2.55398 2.36637,0.0296 z m -4.33016,3.95524 c -1.35607,1.89662 -0.23414,-1.17817 0,0 z m -1.70156,3.20858 c -1.31153,3.12426 -1.1715,-1.85018 0,0 z m -1.3995,-10.48877 c 0.91314,1.45626 -1.60857,-0.45418 0,0 z m 0,1.51486 c 0.64282,2.2289 -1.60969,-0.36876 0,0 z m 2.15005,1.32053 c -2.06682,2.79227 -1.65618,-2.67091 -0.10885,-0.83096 -1.61693,0.48376 -0.22689,0.28749 0.10885,0.83096 z m -3.24081,-1.30588 c 0.37333,1.59531 0.64616,1.83138 -1.50027,3.07037 0.86414,-0.42765 5.11191,-0.80167 1.87221,0.71126 -3.43123,1.36061 -4.69849,-2.30022 -5.66842,-4.80609 -3.54426,-0.07 1.49248,-5.29207 2.60606,-1.90215 1.53954,0.80636 2.04705,1.46068 2.69042,2.92661 z m -2.0103,-4.16117 c -0.96714,1.13061 -2.04676,-1.39766 0,0 z m 8.39058,-8.24578 c -0.30874,1.27409 -1.71603,-1.15715 0,0 z m 0.10051,-4.77347 c 0.12249,1.70892 -1.84243,3.92316 -3.61136,1.4828 -2.12249,-1.43139 0.96298,-4.51308 1.80957,-1.8723 0.66593,-0.63442 2.55346,-0.74057 1.80179,0.3895 z m 1.43819,0.91389 c -0.39115,3.59946 -2.10607,-1.59641 -0.015,-0.34444 l 0.0846,0.14955 z m -1.1907,1.87091 c -1.73775,1.81756 -2.60857,-0.94734 0,0 z m 0,-12.2784 c -2.34827,2.33504 2.02255,2.17029 2.86108,4.19711 0.94961,1.26441 -1.77004,3.03608 -0.91982,0.42073 -2.23998,-2.60844 -2.25112,-0.12302 -3.46492,-0.54098 -0.647,-1.96186 -3.19793,-3.72441 0.27839,-3.24866 -0.076,-0.92661 1.28007,-2.1949 1.24527,-0.8282 z m 2.29677,-1.20526 c 0.0977,2.52219 -1.67845,3.29096 -0.81933,0.34665 -0.0874,-0.78176 0.62306,-1.90215 0.81933,-0.34665 z m 1.4844,8.04508 c 0.34215,2.3873 -0.87193,-0.20539 0,0 z m 2.50557,0.11998 c -1.9485,1.33352 0.59827,5.34071 -1.7628,3.73214 -1.73441,-2.18466 -0.44015,-1.69924 0.0468,-3.132 -0.52394,-3.2061 0.66287,-2.47935 1.71604,-0.60014 z m 0.10051,-1.48584 c 0.88028,1.85405 -1.72161,-0.93932 0,0 z m -83.1391,160.65701 c 0.53508,2.93214 -2.3544,6.10284 -3.47299,8.85503 -0.79733,-1.28294 -6.08045,1.84216 -4.1829,-1.8253 1.50139,-3.18259 5.58741,-5.65364 7.65589,-7.02973 z m 3.16285,-3.87645 c 0.36693,2.69524 -1.56987,0.16337 0,0 z m -1.37667,-2.04506 c 1.20685,1.29315 -0.95378,5.69925 -0.58017,1.54775 0.30624,-0.33808 -0.44321,-2.52468 0.58017,-1.54775 z m 1.32239,-2.55924 c -0.29872,5.3222 -3.65395,-1.19337 0,0 z m 2.47438,-4.76822 c -1.4844,3.70616 -4.39782,0.37346 0,0 z m -5.17371,10.93244 c 0.5838,3.7468 -4.076,0.51804 0,0 z m -0.30178,-1.20111 c -0.0147,1.65695 -0.97133,-0.48818 0,0 z m -1.46854,-1.50546 c -1.02616,1.36531 -0.86442,-0.71017 0,0 z m -10.81875,6.19435 c -0.81208,2.71569 -2.51615,5.68046 -3.65785,3.64645 0.43291,-2.14099 2.71464,-3.79269 3.65785,-3.64645 z m -2.15061,4.96588 c -2.19014,2.13186 -0.73079,-1.6799 0,0 z m 15.69903,-21.10774 c -0.70072,0.75688 0.0777,3.86594 -1.79454,2.40139 -0.48497,-0.90836 -2.10523,2.34555 0.51838,0.79088 0.27923,2.65101 -7.07795,5.08585 -4.47021,1.51072 -3.12861,2.15011 -6.77282,3.43027 -10.9031,3.41949 -1.19488,3.10824 -5.32489,-3.24562 -1.59382,-2.93435 1.11191,1.5837 1.85105,1.30947 2.05707,0.22143 1.67761,1.2293 8.15116,-2.64411 5.07376,-2.03705 -1.6868,1.19612 -6.50388,1.44935 -3.25611,-1.179 0.0969,-2.78508 5.32321,-2.32012 4.31513,-4.61204 -3.09353,2.48294 -3.93986,-0.813 -6.71992,-1.55853 -3.57823,0.68859 -1.41704,-2.08322 -1.1598,-2.66041 -2.22466,-1.1461 1.86303,-2.13768 2.451,-1.00402 -1.34994,-3.58839 4.79648,-3.04465 5.35106,0.46027 1.05122,2.3649 2.30622,4.04618 4.79537,3.81673 1.51029,0.01 4.04425,2.34306 5.33573,3.36449 z m 6.02394,-5.13256 c -0.53424,1.68846 -5.99582,6.13657 -3.96714,3.42309 0.33992,-0.81548 4.07098,-4.53989 3.96714,-3.42309 z m -25.62051,12.68808 c 0.60996,2.83898 0.78702,0.17941 0,0 z m -0.77255,-1.99365 c -2.54148,4.26317 -1.84103,-1.95163 0,0 z m 6.52643,-6.38177 c -2.76892,1.19447 -3.77421,-2.89649 -0.54927,-0.72261 0.20768,0.19628 0.97828,0.31016 0.54927,0.72261 z m -3.24025,-1.29261 c -2.29621,1.34651 -0.47188,-1.43166 0,0 z m -5.90812,1.668 c -1.15646,1.45239 0.10329,-1.42557 0,0 z m 1.59298,-1.72384 c -0.47605,2.19323 -0.81792,-0.98688 0,0 z m -8.36691,-2.29579 c -1.00779,1.15439 -2.45323,0.55784 -2.777,2.36545 -2.87862,-0.86884 -1.67901,3.35481 -4.35384,1.76531 -1.3285,-2.20347 1.0888,-4.02461 3.58129,-3.94998 1.50417,0.0887 2.85829,-1.86759 3.54955,-0.18078 z m 7.48496,-7.22629 c -0.69293,3.57375 -4.20351,5.22738 -6.62695,5.41536 -0.80595,0.24935 1.84048,-3.05295 3.34883,-3.93422 0.42789,-0.85888 3.56904,-2.72122 3.27812,-1.48114 z m 17.52392,-5.5146 c -2.95073,0.47713 -0.43876,-2.02958 0,0 z m -10.94988,-2.3707 c -2.0451,1.54001 -1.55011,-1.68985 0,0 z m 3.23941,-4.5808 c 1.05819,3.72247 -4.73384,2.34693 -2.24219,0.25321 1.05623,0.26041 0.72494,-3.35259 2.24219,-0.25321 z m -3.9354,-3.66138 c -0.0223,4.10063 -4.1584,2.72261 -5.11247,0.0423 -2.44682,-0.60594 3.12221,-4.91639 4.17595,-2.24272 1.56096,0.42267 0.70379,1.55163 0.93652,2.20042 z m -6.79787,-3.1602 c -2.049,1.27326 -4.97355,0.45888 -1.38391,-0.43788 0.38112,-0.21838 1.49805,-0.22778 1.38391,0.43788 z m 0.61859,0.87519 c -1.68624,0.43759 -0.94988,-1.18757 0,0 z m 9.05567,-27.22278 c 0.6211,2.87161 -0.24889,8.30825 -0.78146,8.87107 1.93625,0.15204 0.60941,2.8036 1.99554,3.94362 1.85384,0.38258 1.02283,2.5186 1.38447,2.51528 2.56792,-0.37955 5.52003,3.3081 8.05817,0.15646 1.11247,0.0923 2.41954,0.052 2.97689,1.14997 0.92845,3.34984 -4.01725,3.25226 -3.80512,5.13063 -0.5593,1.97983 -3.0128,3.73961 -4.16007,5.5403 -2.42093,2.4423 -3.37026,-0.38036 -1.91787,-2.41465 -1.15117,-3.03747 5.00362,-4.06442 4.33101,-4.89566 -2.11052,1.36144 -4.02867,0.0995 -4.83324,-1.51652 0.47105,2.11279 -2.68123,6.44507 -2.16592,1.9132 -0.97912,-1.83304 -5.02644,1.74182 -5.85383,0.29745 3.05456,-1.65308 -4.40506,-0.87602 -1.35329,-2.99075 -0.78062,0.0105 -3.16926,-2.22503 -3.40227,-3.53533 0.701,-3.88169 4.07071,0.47574 4.17594,-0.27007 -1.66927,-1.69869 -1.54955,-3.24673 -3.45713,-2.50312 -0.38112,-1.39849 -1.00612,-2.90948 -1.87166,-1.30975 -0.24665,-3.443 -1.36441,0.74942 -1.42231,2.27727 -2.43207,-1.1519 -4.6701,-1.89496 -5.29761,-4.57168 -2.20016,-1.08252 0.63948,-1.69565 0.78898,-1.76918 -1.82851,-3.03691 1.86191,-2.47326 2.22717,0.0857 2.47327,2.20207 2.04705,0.39198 0.88947,-1.75647 1.04677,-1.03636 2.31848,-0.38425 0.2784,-2.50146 -1.86943,-2.11445 0.4794,-5.18122 1.07433,-1.20222 1.0064,1.92427 4.18986,2.73754 3.91286,2.975 -0.23859,3.54251 0.97271,-3.50299 1.81765,0.21451 3.74665,2.80609 -3.00446,-2.86442 0.0924,-4.33477 -2.48134,-1.47064 -0.81793,-3.67659 0.58018,-5.422 -0.74889,-1.86151 3.71185,1.0441 3.57294,2.87078 1.43596,0.1747 1.74776,2.08736 2.16536,3.05239 z m 8.97827,11.79022 c 0.83074,1.64811 -1.54315,-0.99572 0,0 z m -0.35578,3.42614 c -0.63419,1.34651 -1.01643,-0.73698 0,0 z m -2.2656,-1.26442 c -2.18318,4.87548 -4.91675,-4.63857 0,0 z m -1.04399,-14.08076 c -0.70266,7.27798 -2.63696,0.032 0,0 z m -0.74219,4.43374 c -1.73552,2.46248 -0.85663,5.14446 -0.51058,7.41426 -3.04204,2.80802 -2.57544,-4.36878 -1.25278,-5.68626 1.36803,0.64962 0.97215,-3.34625 1.76336,-1.728 z m -10.70322,-21.17684 c 1.38697,2.96255 -1.92149,-0.83732 0,0 z m -1.78674,8.24633 c 0.804,1.28901 -1.62278,-0.50726 0,0 z m 22.61967,-5.04135 c 1.2539,2.30713 -1.89281,-1.21161 0,0 z m 4.26894,-2.97388 c 1.10049,2.20484 -1.21549,-0.6792 0,0 z m 6.73606,-2.4141 c -0.83658,-1.0007 1.14866,-0.37237 0,0 z m -4.94988,-3.38799 c -2.33964,0.12411 0.20657,-2.36767 0,0 z m -0.76559,1.70919 c -1.53591,-0.30795 0.67761,-0.7038 0,0 z m -1.9716,0.97001 c -1.94126,-0.0973 0.50334,-1.36338 0,0 z m 9.38083,-22.02411 c -1.9123,0.83925 0.65841,-1.77803 0,0 z m -27.85547,-1.7432 c -2.35496,1.47174 0.30484,3.84216 -0.37083,4.20154 -1.9432,1.73849 -4.52644,4.47934 -4.5707,6.00084 2.56904,2.41826 6.19654,-5.18066 5.72298,-0.18963 -1.12945,2.31403 -3.19487,2.09372 -5.03451,1.42806 -1.10524,0.28777 -2.65618,-1.38826 -1.52366,1.1942 1.96381,2.75688 -3.49498,3.49966 -4.29927,4.37651 3.07322,-0.11583 4.24804,-2.10478 4.46937,1.62599 0.84771,3.97016 -4.85996,1.4723 -4.74081,2.30575 3.73273,0.88929 1.00362,4.57029 -0.53285,4.09703 -0.45629,2.6947 -2.8452,-2.92246 -1.96464,0.67948 -2.71381,-0.46855 -2.99833,-4.65682 -2.39727,-6.15371 -2.43624,1.9895 -5.6e-4,5.98094 0.69599,7.42531 -0.42205,1.32025 -5.82432,-0.99461 -2.84604,1.83388 1.50027,1.47864 -0.69877,2.24492 -1.10523,2.40857 -1.75362,-0.28556 -2.46604,2.81024 -3.88251,4.27562 -1.26003,-0.71818 -4.58964,-3.86871 -5.1275,-5.66001 2.15979,0.35771 1.52088,2.80222 2.86942,0.10117 0.64087,-0.99156 3.12612,-1.80124 3.01559,-2.136 -2.60495,-1.84548 1.83045,-1.10049 2.90785,-1.30008 -0.84883,-1.84686 -3.80512,-2.74168 -6.05512,-2.76186 -2.25278,-1.41341 -2.43986,-3.0499 -0.15423,-3.56324 2.44961,-1.06621 -1.00056,-0.76683 -0.0393,-1.59558 -1.40061,-1.20498 -2.5682,-3.80928 -1.09772,-5.74045 -0.0348,-1.31694 3.9421,-0.15176 1.14449,-1.92233 0.0557,-3.08971 2.67428,-0.43566 3.17065,-1.20995 1.96492,1.4452 -1.39031,1.85239 1.86331,2.84092 0.43791,-2.74887 4.68763,1.0897 4.65618,-0.71348 -2.08213,-1.66027 -4.49221,-5.90796 -0.84355,-6.75496 1.29371,-2.06995 4.35635,-1.5602 5.71548,-2.55978 1.29815,-3.65171 6.53562,-5.06264 7.74052,-7.83251 2.06681,1.49773 2.21965,3.06345 2.61386,5.2987 z m -17.22966,10.27508 c -0.21576,2.9034 -4.81904,-4.22364 -1.40701,-1.1226 0.24164,0.41825 0.91926,0.52827 1.40701,1.1226 z m -1.87917,0.62668 c -1.28201,-0.50864 0.18653,-1.00014 0,0 z m -7.66397,10.02712 c -4.25974,0.5725 0.38224,-3.60775 0,0 z m 3.84382,5.88916 c -1.62611,1.43277 -3.8221,0.76684 -1.00557,-0.82377 0.75641,-0.9114 1.00918,0.14651 1.00557,0.82377 z m -6.58852,6.24522 c 0.0501,2.71404 -3.55846,-0.79032 0,0 z m 1.69376,2.5327 c -2.20935,3.75868 -2.88084,-1.6553 0,0 z m -3.65785,0.9631 c -0.13279,2.08653 -1.29788,-1.01894 0,0 z m -10.80372,0.67533 c -0.21576,0.93766 -0.85161,-0.65349 0,0 z m 16.74998,3.44493 c -0.1971,2.29828 -4.61497,-1.72827 -2.91481,0.77429 -0.0312,2.01604 3.12667,0.18826 1.17484,2.85033 -2.70045,0.47242 -4.94404,-1.03968 -4.39226,1.25915 -0.0337,3.7902 -3.04426,-4.48487 -5.25862,-1.64561 -3.10356,-1.20553 -0.72104,-3.21549 0,-4.68723 1.63112,0.24824 2.81932,-0.73919 1.7319,1.06179 1.09688,0.67698 2.9407,-4.71654 2.38223,-1.09027 1.64839,3.73824 2.02033,-3.65667 4.41564,-0.56005 -2.18735,2.61369 3.42038,-0.11196 2.86108,2.0376 z m -9.90644,3.46732 c 1.1907,1.92012 -1.36053,-0.34748 0,0 z m -5.97717,2.30325 c -2.58908,0.0617 1.35022,-0.76627 0,0 z m 1.23748,-0.42902 c -0.22606,1.82502 -1.19878,-0.31735 0,0 z m 6.87443,-0.0143 c -0.004,4.99213 -3.07878,-3.54832 0,0 z m 3.57238,4.58466 c -0.58157,4.87493 -9.14114,-1.82419 -3.41035,-2.66952 1.24637,1.12675 2.78395,1.06455 3.41035,2.66952 z m -0.8814,4.98634 c -1.92233,0.0514 -6.24471,-3.3515 -2.52895,-2.74804 1.95573,0.81742 1.55317,1.43967 2.52895,2.74804 z m 1.26809,2.28916 c -1.20574,1.65086 -1.94404,4.36103 -4.12917,3.19447 0.78842,0.0313 4.44626,3.51432 1.64754,4.08129 -3.62165,0.1537 1.38391,0.51748 1.74694,1.83939 0.012,1.47866 -4.98719,1.06096 -5.14198,-1.28735 -0.99805,-3.94058 -0.50362,-6.35137 0.36304,-10.24495 -1.08464,-3.38412 0.0123,-1.00208 1.70962,-0.19931 1.65396,0.68915 3.34633,1.8358 3.80401,2.61646 z m -1.8711,10.82546 c -0.98413,3.9392 -2.28647,-1.83387 0,0 z m -3.00779,1.8499 c -1.74694,0.59986 -0.21743,-1.51099 0,0 z m -1.39198,0.21175 c -0.25975,1.99751 1.36776,2.73366 -0.0159,4.38425 -1.6676,1.1685 -5.0735,-0.0512 -2.33547,-1.93006 -0.76837,-0.83401 2.1662,-2.46746 1.78619,-2.87769 0.17984,0.15647 0.44905,0.18963 0.56515,0.4235 z m -1.82544,5.52427 c -0.21632,1.43995 -2.99582,0.80305 -1.48441,-0.64741 0.18179,0.40277 2.27115,0.3038 1.48441,0.64741 z m -0.14672,2.37679 c -2.5966,0.81769 0.16425,-1.80319 0,0 z m -1.74833,2.00857 c -2.78674,0.29745 0.25474,-1.22958 0,0 z m -1.6932,1.27713 c -0.91982,4.24936 -2.23998,-0.67754 0,0 z m 7.94208,-9.80431 c 1.07099,1.27492 -1.65061,-0.37263 0,0 z m 4.03674,-19.24954 c -1.9045,1.66331 -0.025,-2.84866 0,0 z m -0.50306,-4.73643 c -0.13446,1.81175 -2.58853,-1.70533 0,0 z m 1.21409,-0.44285 c -0.14477,3.2564 -1.79454,-1.40677 0,0 z m -1.07489,-2.53049 c -0.14588,4.17002 -3.42733,-0.30269 0,0 z m 1.91008,-0.14292 c 0.1417,3.92511 -4.03062,0.55481 0,0 z M 780.09139,34.075843 c -1.16314,-1.128407 -2.76698,5.515702 -2.26559,2.047275 1.33686,-2.13159 -0.3363,-2.865523 -1.00556,-0.566693 -0.85412,1.451004 -0.50696,5.043275 -1.32239,5.643696 -0.85579,2.9338 2.84354,1.620733 3.73497,1.694545 -1.19376,-1.798763 0.92734,-3.820886 0.51893,-4.930772 0.60245,-1.332415 1.429,-1.869251 0.951,-3.541402 -0.16704,-0.06579 -0.70267,-0.02654 -0.61136,-0.346649 z m -5.01113,12.32816 c 1.25501,0.830962 -2.36971,1.663861 -0.0612,0.04699 z m 5.90089,1.799039 c 0.23134,-1.412308 -1.5039,-2.017701 -2.93152,-1.783559 -3.97855,-2.425439 0.72606,6.123034 0.23218,1.783559 1.39923,-0.345822 2.098,2.502287 2.69934,0 z m 0.61107,9.3728 c -1.08713,-1.373611 -1.68234,2.327578 0,0 z m -4.67121,2.658192 c 0.98414,-2.75163 -5.71881,3.454607 -1.58573,2.157577 0.73189,-0.584109 0.88168,-1.543892 1.58573,-2.157577 z m -2.71435,12.877715 c 0.19766,-1.98646 -1.26866,1.30201 0,0 z m -0.97439,0.44728 c 1.1108,-2.85641 -3.33992,-3.73077 -1.8711,-0.47824 -0.4897,1.82641 2.15617,3.3432 1.8711,0.47824 z m -4.16091,-18.551544 c -0.17845,-3.658062 -2.14671,1.719699 -2.32767,-0.748032 -1.1971,1.628754 2.76948,2.463865 -0.96631,2.647413 -1.228,3.413973 -1.88085,0.606503 -0.21687,-1.120664 0.92706,-2.216459 -0.2397,-1.47506 -0.32405,-2.274781 -0.0869,-2.396967 0.32377,-2.014379 0.62638,-4.636364 1.14672,-1.390469 -0.42315,-5.11045 -0.37889,-1.641751 -0.0846,0.719288 -3.79204,-1.237596 -2.85356,1.813693 -3.23246,1.361995 0.5554,3.378034 0.64922,3.918741 -2.83936,0.813267 -3.70545,-5.792696 -4.26141,-0.670908 -2.41704,0.63801 -1.29148,3.323296 0.42567,1.839949 2.12444,-1.091088 0.61971,3.109063 2.26587,0.327297 0.55177,-0.697716 0.18874,4.08073 1.84047,3.595863 -0.98246,2.793649 1.83741,0.622256 1.53118,2.486532 3.28312,0.931586 0.95601,0.277816 0.30957,1.335178 -1.18262,-0.07906 -0.35857,2.49925 -1.12193,3.163244 -1.21019,-3.6846 -2.90172,-0.520252 -2.90729,0.32509 -0.32962,-4.608998 -2.47355,1.608298 -3.59632,-1.518457 -5.12277,-0.202351 -1.25724,7.477561 1.45461,4.830145 0.66788,2.334216 1.51894,-3.258061 1.85579,0.29385 -1.3182,0.655706 -1.54314,2.383416 0.81181,3.613826 0.57711,-2.23276 1.38391,-1.17346 1.91007,-2.99572 2.69488,1.31887 -3.09158,-4.749426 0.82767,-2.133801 0.51754,3.779141 0.71994,0.703251 2.22717,0.09288 -0.72077,1.452112 -2.03646,5.919021 -0.093,3.014251 -0.20017,3.10823 0.53341,5.71252 -0.78842,9.21302 -1.40144,2.50035 -0.55039,3.57264 -1.77171,6.01412 -0.65006,1.58397 2.40896,1.56931 1.89504,2.52551 1.97271,1.86289 0.0225,-3.4032 1.3995,-4.54847 -0.18347,-2.92827 0.36247,-1.74402 1.42316,-2.28611 -1.90646,-2.6394 2.2049,-2.43788 -0.1083,-4.78122 -0.3402,-2.43815 0.84104,-2.87575 2.05707,-4.14542 -1.3736,-1.26247 0.15757,-3.3197 -1.92538,-1.43552 1.92371,-3.206095 -0.63837,-0.88459 0.31681,-2.4412 -1.43374,-0.529092 -0.022,-1.358954 -0.0846,-2.692193 -0.18625,2.675604 3.70461,0.665927 1.87081,-0.433453 -1.88,0.04616 3.40507,-3.100771 -0.4947,-2.94514 -2.82406,-1.295647 3.92121,-0.224464 1.91007,-3.353707 -3.26948,1.970987 0.25334,-1.127297 0.88141,-3.017557 -1.93346,0.456394 -2.33993,2.522192 -3.17038,3.064276 -0.19766,-1.900204 -2.03758,-0.486525 -1.81736,-1.243958 1.82293,-0.811889 2.3104,-1.034688 0.71881,-3.050455 z m -23.091,18.582224 c -1.65758,-5.034708 -3.24053,3.396 0,0 z m 12.89864,-3.78163 c -2.65312,-0.67561 0.85802,1.73656 0,0 z m -3.92789,-7.943908 c -1.74972,1.626266 3.69404,0.993505 0.17762,0.0622 z m 9.31096,0.620598 c -1.09103,-1.806778 -0.52505,2.290261 0,0 z m -0.36387,-2.157577 c -4.21074,-2.484594 -1.08268,4.28806 0,0 z m 10.57098,-19.880637 c -2.24999,-0.259293 -3.78451,-0.717623 -3.20851,2.542097 -0.53953,2.007193 0.39448,6.156756 -0.78146,2.209819 -2.10885,0.210921 -1.1211,6.738651 0.348,8.671481 1.25333,-1.05321 0.25946,-1.265791 2.83769,-0.701587 -0.40646,-2.83346 1.31068,-4.311002 -1.14449,-6.153992 3.08129,1.113204 -1.50223,-5.421994 1.64003,-1.612443 1.34103,-0.258745 -0.10106,-3.833598 0.30874,-4.955375 z M 600.45632,209.68 c -2.13864,1.7338 -0.94042,-0.18633 -1.13698,-1.00319 0.16315,0.70353 1.30263,0.24327 1.13698,1.00319 z m 86.46063,-36.80785 c 0.40173,-0.008 1.08686,0.33199 1.80067,1.3736 l -0.28702,-0.026 c -2.06877,-0.3461 -2.18347,-1.33408 -1.51365,-1.34764 z m -4.67203,3.33463 c -3.272,4.05558 -1.77172,0.58604 0,0 z m -11.04871,3.55025 c 3.30094,1.85239 6.62053,4.1562 8.63028,7.38606 -0.38391,0.17969 -0.61498,-0.38783 -0.82656,-0.59599 -1.88168,-2.32288 -7.8956,-6.61315 -7.80372,-6.79007 z m 16.52113,11.27329 c 0.46994,-0.0791 4.68597,1.83249 1.81821,1.27879 -1.61191,-0.91251 -2.00223,-1.247 -1.81821,-1.27879 z m -7.60383,2.24631 c 0.13169,0.002 0.49137,0.35135 1.14838,1.26109 0.27144,2.07299 5.63029,0.34472 2.92317,1.51183 -2.10997,1.55936 -4.54148,-2.78232 -4.07155,-2.77292 z m -30.17117,6.48737 c 0.19515,-0.0627 0.54844,0.34775 0.92232,1.5895 0.21019,0.33532 1.7848,1.61604 0.53063,1.40816 -1.63725,-1.03857 -1.82545,-2.87741 -1.45295,-2.99766 z m -3.81041,1.33905 c 0.042,-0.007 1.30011,1.40015 2.48802,2.23746 0.83631,0.63995 6.80094,4.39836 4.22829,3.54169 -1.89087,-2.19296 -5.52812,-0.94817 -5.5941,-4.3193 -0.8285,-1.06371 -1.1442,-1.45598 -1.12221,-1.45985 z m 15.73801,5.40762 c 0.32043,0.01 0.79761,0.0539 1.47021,0.15563 0.53146,0.41907 3.11135,-0.72951 2.35773,0.29385 -1.75946,0.84008 -5.36998,-0.35107 -4.09771,-0.44064 0.0735,-0.005 0.16286,-0.01 0.26977,-0.009 z m 40.12383,0.0605 c 0.38001,-0.0116 0.6314,0.28721 0.3132,1.19226 -2.60857,0.33449 -1.14922,-1.16655 -0.3132,-1.19226 z m -21.38416,7.53285 c 0.60273,0.59848 4.04677,-0.10284 2.98385,0.8293 -2.17121,1.20636 -7.91397,-0.48321 -2.98385,-0.8293 z m -19.40949,3.54196 c 0.92956,-0.0979 2.71992,1.45183 1.679,1.32163 -1.48858,-1.09468 -6.03061,-0.15895 -2.00974,-1.16628 0.0871,-0.091 0.19795,-0.14153 0.33074,-0.15535 z m 20.10548,2.34969 c 0.41621,-0.0113 0.17679,0.56393 0.2088,0.76877 -3.375,3.61881 -5.85411,9.49056 -9.66563,11.71393 3.39698,-4.06941 6.24693,-8.4614 9.45683,-12.4827 z m -15.22492,15.58402 c 0.32071,0.007 0.67733,0.0453 1.05261,0.1208 0.0891,0.32259 -0.30567,0.29523 -0.46102,0.44063 -3.549,0.77816 -2.83658,-0.60871 -0.59159,-0.56143 z m -10.70962,0.11222 c 0.82489,-0.0525 1.58017,0.28695 2.25334,0.95896 -1.33825,-0.45031 -5.26085,1.26856 -4.8981,0.42322 0.93095,-0.8857 1.82015,-1.32965 2.64476,-1.38218 z m 11.98857,3.49 c 0.11832,0.002 0.13224,0.16669 -0.0175,0.57001 -0.75668,1.96821 -5.49303,5.5403 -2.39226,1.87478 0.24304,-0.40941 1.98664,-2.45308 2.4098,-2.44479 z m -26.1258,2.50505 c 1.7525,0.93905 6.43178,0.009 6.78591,0.69994 l -0.14784,0.0862 -0.20879,0.0431 c -1.89003,0.37844 -8.43624,0.70712 -6.42928,-0.8293 z m 42.07261,2.19434 c 0.20461,0.004 -0.0571,0.46828 -0.2784,0.47519 -2.12082,2.44672 -3.94599,6.93271 -4.94153,8.76824 0.27032,-3.10824 3.02477,-6.54432 5.0025,-9.15718 0.10384,-0.0542 0.1701,-0.0874 0.21743,-0.0863 z m 49.23267,10.43537 c 0.74527,0.006 2.38446,0.7812 0.56542,1.08859 -1.13891,-0.81962 -1.01252,-1.09219 -0.56542,-1.08859 z m -60.77748,0.0777 c 0.43346,-0.0243 0.66787,0.0749 0.37416,0.41465 -2.34576,1.10961 -8.33824,-0.0293 -2.70572,0.0777 0.33268,-0.0804 1.6094,-0.45169 2.33156,-0.49233 z m 12.99775,0.73449 c 0.48497,-0.009 0.77784,0.12965 0.56543,0.57 -2.48413,0.45723 -8.84966,0.52966 -3.13196,-0.12107 0.41649,-0.0396 1.75807,-0.4434 2.56653,-0.44893 z m 6.04621,6.0987 c -0.10496,0.1772 -0.30568,0.26842 -0.43485,0.42323 -2.76614,1.36669 -4.1495,5.1204 -7.45573,5.01038 3.30623,-0.72177 4.97689,-5.28405 7.89058,-5.43361 z m -22.83711,0.69966 c 0.29343,-0.002 0.66843,0.0945 1.14838,0.34554 -1.76112,2.59434 -2.73189,-0.33227 -1.14838,-0.34554 z m -6.98579,0.61341 c 0.0579,0.009 0.10301,0.0644 0.12166,0.19019 -0.76587,1.96794 -3.58797,6.06387 -4.8285,5.12261 1.84687,-0.52384 4.14421,-5.39988 4.70684,-5.3128 z m 26.88248,7.97348 c 0.67678,-0.0152 0.96882,0.073 -0.29566,0.36269 -2.23802,0.92578 -6.206,0.0124 -1.72271,-0.0951 0.28174,-0.1255 1.34159,-0.25266 2.01837,-0.26759 z m -26.49996,0.19848 c 0.21213,-0.0113 0.37388,0.0929 0.38307,0.41466 -1.48775,2.30934 -5.02143,2.86746 -5.75083,5.6929 -0.33352,1.6047 -3.853,4.91832 -4.18457,3.96518 4.08156,-2.15647 3.73914,-7.59699 8.52588,-8.83735 -0.15061,-0.51693 0.56013,-1.19447 1.02645,-1.23539 z m 12.51056,4.95013 c 1.1985,1.79157 4.41954,1.19502 4.83713,2.74692 -0.14477,-0.009 -0.25167,-0.23248 -0.40896,-0.15535 -1.62945,0.20512 -5.13334,-1.80595 -4.42817,-2.59157 z m -2.27951,1.05377 c 0.0604,-0.0329 0.16342,0.0669 0.32211,0.36295 -0.57378,4.19877 2.72688,7.41288 4.53257,9.72692 -1.49277,0.21451 -1.87417,2.61451 -2.22717,2.49648 -1.52367,-2.40416 -0.89116,-6.46278 -2.60997,-9.36395 0.21576,-0.41189 -0.27812,-3.07922 -0.0175,-3.2224 z m -6.99303,26.6718 c -0.80262,2.93049 -1.11637,-1.59751 0,0 z m -6.16258,-9.39049 c 2.21548,2.15398 4.92678,4.82849 3.89755,7.94447 0.80067,3.47976 -1.08853,-0.69192 -2.71436,-1.22848 0.80818,-2.67478 -4.38975,-4.7345 -1.18319,-6.71599 z m 0.17706,5.70534 c 1.49388,3.02392 -1.48886,-0.22446 0,0 z m 2.63781,13.32831 c 1.54983,2.46994 -1.36024,-0.15177 0,0 z m -5.63057,-9.22048 c 3.86972,0.40663 3.21966,5.14223 4.22272,6.87189 1.2834,1.64174 -0.70936,2.65322 0.8118,3.7996 0.70879,2.22364 -0.81124,3.75619 -3.50334,3.3186 -4.92148,-0.88128 -3.43763,-5.6249 -5.28117,-9.116 0.0279,-2.67119 2.25028,-4.42129 3.74999,-4.87409 z m -8.26641,21.48644 c -2.02672,1.66358 -1.0412,-1.2387 0,0 z m -4.61636,-21.92294 c 0.86804,1.49828 -1.45462,5.74902 -1.24583,2.20789 0.79427,-0.76268 0.31682,-2.26594 1.24583,-2.20789 z m -11.3839,-9.4314 c -0.69264,4.30188 2.90562,7.91129 2.97773,11.88421 -1.35189,1.48667 -3.13419,2.88156 -5.47494,2.58577 -0.37416,4.61701 -5.85133,0.52993 -1.74832,-1.21078 1.51308,-2.02682 -4.03035,-4.27313 0.3633,-5.38274 -0.35969,-2.13961 -3.71102,0.2933 -3.61107,2.5092 -2.21465,3.55937 -5.04343,1.04741 -2.25056,-1.6224 1.30986,-1.47063 -0.31542,-2.53435 0.52645,-4.4108 0.0593,-1.25417 3.62082,-2.59959 3.47187,-1.96959 -0.55233,3.37057 0.36081,2.06386 1.01281,-0.10975 0.99054,-0.68583 4.91341,-4.61977 4.73273,-2.27312 z m 7.87304,-2.00166 c 0.0919,4.08957 -2.82321,3.89054 -3.12499,7.91212 -5.55539,1.88473 -4.86497,-9.6849 1.57043,-7.62408 0.41092,-0.0354 1.43541,-0.84036 1.55456,-0.28804 z m 26.51723,8.43098 c 0.82461,3.44078 -3.18847,1.61963 -0.19376,-0.32785 l 0.12416,0.0956 0.0696,0.23221 z m 14.5565,24.56483 c 0.23998,-0.0107 0.74081,0.33227 0.72216,0.65653 -0.69349,3.13671 -1.04037,2.49013 -0.7049,-0.17277 -0.21381,-0.34112 -0.16119,-0.4774 -0.0173,-0.48376 z m 36.77528,14.08382 c -0.22808,0.16987 2.07458,0.24367 -0.0873,0.59016 -2.16188,0.34648 -4.15812,0.84049 -6.44022,0.5305 -2.28209,-0.30999 -4.45629,-0.83756 -6.08824,-0.72616 -0.69906,1.15273 -2.51253,-1.21631 -1.68792,1.78798 0.82433,3.05958 -1.1417,3.93948 -3.86246,3.4383 -2.02033,1.80678 -3.32878,0.70215 -3.20156,0.20733 -1.09048,1.84879 0.48691,2.83594 -2.65367,4.13795 -2.20852,2.24465 -4.59298,0.26261 -3.68874,-2.37568 -0.91816,2.24603 -1.10274,4.4564 -3.34939,1.94361 -1.53174,-0.8528 -0.0153,-5.03527 -2.22717,-2.06442 -2.35106,0.50892 -3.31876,-3.13891 -3.91508,-3.10989 -2.16091,2.08902 0.59465,3.8231 1.47049,5.56298 -1.41593,0.79613 0.85105,4.15288 -0.88753,5.19199 -3.3995,-0.0483 -4.78814,-3.15107 -6.89894,-5.02779 -2.11553,-0.89399 -4.38891,-2.76656 -5.93345,-3.65391 -3.43207,1.03939 -4.1339,3.52149 -2.3054,6.2629 1.00167,1.51376 1.87444,4.12745 1.17455,4.75108 -3.67705,-0.81686 -1.26753,-4.70685 -3.76698,-6.28032 -2.45684,-2.68141 -7.03924,-8.12884 -3.73245,-11.76562 3.54286,-1.31776 0.88112,6.31101 4.46324,4.6043 -1.65812,-2.88321 -3.00667,-6.32234 -0.93095,-9.66637 1.53675,-3.43028 5.7241,-5.71225 5.06347,-10.29719 2.09409,-1.91681 2.0231,-5.47176 5.50694,-5.90907 1.70853,-2.06194 -0.66285,-4.54874 -0.84381,-5.13976 0.65451,-3.65446 -4.38251,-3.30008 -5.0373,-5.87424 -4.05985,-1.3783 1.73942,-4.09012 -1.34855,-6.62586 -1.10078,-3.63706 0.84716,-9.89416 5.11553,-6.46167 1.33463,0.0268 7.40422,1.30118 5.11553,0.2159 -3.91787,-0.12855 -6.83184,-4.67922 -8.59548,-6.17666 0.14059,1.8264 3.84716,4.80941 -0.20017,3.64562 -2.32488,-1.82419 0.61692,-6.11308 0.18263,-6.53077 -1.76252,3.59862 -1.66036,-4.57555 -1.96603,0.16419 0.70935,1.54196 0.89754,6.01938 -0.46103,6.18524 0.42205,0.90422 -0.38501,5.6401 -2.37527,6.5739 -1.8647,-0.22474 -1.31737,-7.34516 -2.34883,-4.58717 1.82405,4.38509 -2.67344,0.41825 -2.8274,-0.56143 -0.56931,2.39171 -1.43206,4.07188 -0.26113,6.46166 -3.09492,-0.536 -4.74944,-3.35453 -4.01057,-6.40112 -0.0315,-3.12344 2.81347,-6.56727 5.15033,-8.63859 3.05205,-1.03663 2.68624,-4.74749 6.20294,-5.70147 0.80874,-1.61908 -3.23273,1.31583 -3.78452,1.51155 -0.65423,3.79517 -5.65144,4.10118 -6.59437,7.92179 -0.64949,1.93864 -2.95962,3.23263 -3.68874,1.97816 -0.20379,4.54901 1.81291,7.62795 3.66258,11.65339 -2.51643,1.82171 -5.57043,5.6495 -4.41063,8.94958 0.59604,1.31749 -1.00195,3.71114 -1.27033,5.79656 -0.53117,2.06055 -2.57822,2.71072 -0.32182,4.0083 1.61387,4.04452 -5.16842,6.36575 -7.978,4.72538 -0.97215,-3.49385 2.03424,-5.30672 2.85356,-7.96491 -0.429,-3.73077 0.63502,-7.79519 1.69655,-10.75498 1.06264,-3.00097 5.179,-5.28266 5.37666,-7.83527 -1.54036,1.88336 -3.61664,5.52317 -5.21992,2.80747 -2.38725,-2.26372 2.10411,-6.24963 1.63557,-7.0231 -1.39114,2.23277 -4.04063,2.4846 -2.34911,-0.60456 2.3299,-1.99033 3.71353,-7.00098 1.16593,-3.179 -1.12249,1.3971 -2.29287,5.34681 -1.94014,1.39931 1.68652,-1.92565 2.10717,-5.91045 4.69793,-5.22627 -2.04176,-1.06511 1.21882,-4.10783 0.2436,-5.01039 -1.3054,2.07078 -3.58101,4.43872 -1.80958,0.49233 1.69961,-2.02405 0.16481,-2.37208 -0.12166,-4.18107 -0.0986,-4.06525 2.64059,-6.38509 4.27144,-9.64923 1.1378,0.009 7.9791,0.45031 3.15812,-0.2593 -1.6353,0.32287 -2.47578,-0.91223 -2.99276,-1.83995 -1.7525,2.79365 -0.17149,-3.01204 1.9574,-0.96752 1.8544,-0.71238 4.60273,-3.02337 0.97439,-1.24396 -3.02978,1.78384 -2.17121,-2.06552 -0.74805,-3.66276 1.71659,-1.39711 1.25084,-3.46622 4.60217,-3.61964 1.99165,1.34209 5.04843,-2.00498 1.53118,-0.009 -4.80624,-0.0271 -1.60635,-3.62212 0.11303,-5.7877 0.86637,-1.99697 -3.13475,2.2897 -3.21019,3.14444 -0.84633,2.15895 -3.24276,2.15757 -4.32377,4.75993 -2.8221,0.79558 -4.67622,7.35897 -8.31708,7.10078 -2.07099,-1.58785 -2.49916,-1.70201 -5.5245,-2.34113 -3.1442,-1.82779 -4.13585,-6.77293 0.6264,-5.0535 2.0437,-2.05861 4.12861,-2.72233 6.75973,-1.36476 4.5103,-1.39599 -1.08185,0.26565 -2.43596,-1.52039 -2.31208,-0.19655 -4.16926,2.74029 -6.69014,1.26966 -2.01197,-0.76876 -7.92566,1.38937 -7.50807,-2.46193 h -0.0172 c 1.63195,-2.09482 5.27616,-1.49219 7.74274,-2.2546 1.67177,2.21701 2.07934,-0.029 2.4794,-0.0951 1.96826,0.43262 3.23663,-1.18204 0.21771,-1.9696 0.0359,-2.10284 6.01001,-1.11099 4.81096,-3.30007 -0.88363,2.33642 -4.40144,0.55784 -1.24416,-0.38868 -1.60189,0.094 -7.6815,0.65792 -4.14113,-0.56143 0.80651,-0.29469 -0.0766,-2.28115 0.95712,-3.81839 0.39115,-3.50797 3.63223,-1.68902 5.12416,-0.24161 1.79482,0.30407 5.73106,-2.04839 1.68792,-0.65681 -3.11275,0.90726 -1.31348,-3.86622 -4.21103,-2.22862 -3.09492,-2.39088 3.32183,-6.83292 5.23748,-3.179 1.96658,0.83428 4.96769,-1.27741 1.2266,-0.20732 -0.77922,-1.51293 -3.08017,-2.01798 -4.7241,-2.83346 1.11081,-1.87036 1.69321,-2.90395 1.47912,-4.66484 2.78313,-2.22088 3.80484,1.33684 6.45517,1.49441 0.32461,-0.39614 -3.01781,-1.82198 -3.97578,-2.97168 -2.4251,0.58273 -7.47298,-0.42709 -3.41898,-3.06649 2.25974,0.19516 6.87472,-2.62834 5.87249,-3.97403 -1.32321,2.53961 -6.08908,4.31487 -4.38474,0.65681 -1.37305,1.7526 -6.13557,4.41412 -5.45489,0.66511 0.006,-1.1895 0.66453,-2.9421 -1.41815,-3.02365 -0.6804,-2.89538 0.58547,-9.45352 3.19292,-5.15716 1.24722,-0.78315 1.59855,1.90352 2.897,1.6586 -1.38308,-1.66193 6.02449,-0.23469 1.90534,-1.83995 -3.00584,0.46331 -2.79844,-0.59516 -4.14978,-1.52039 -0.0278,-2.56227 -4.01252,-2.72869 -1.67037,-5.30423 0.3839,-1.94693 4.56542,0.75716 2.08797,-2.11639 -3.93624,0.17554 -2.46019,-4.79504 -2.91453,-7.11819 2.66063,-0.31431 4.22745,-0.37457 4.21074,2.99765 0.8196,2.41715 1.39811,1.56988 1.75752,0.8119 1.56319,-0.59572 -0.56849,-3.60997 -1.2965,-4.96726 0.17679,-3.15523 3.03564,-1.63622 3.06236,0.81216 3.20351,3.20416 1.92789,-4.10284 5.1069,-1.02806 1.04705,2.13547 5.728,2.49234 1.90534,0.6394 -1.39031,-1.20277 -4.87193,-3.22876 -1.51391,-3.00623 0.86414,2.1772 3.6506,0.468 5.04593,2.83346 1.67984,0.87878 3.0295,3.95384 1.67037,0.4492 -1.7834,-1.4416 -3.98774,-2.37015 -2.63585,-4.29358 -2.65507,-1.10906 -5.15005,-3.52345 -6.49888,-5.01896 -2.42706,-2.0141 0.64727,-3.83055 1.62694,-0.85529 1.06571,-0.61727 4.72884,0.31956 2.67929,-2.28915 0.81626,-0.72454 -0.11943,-0.81548 0.99192,-1.86594 -2.37944,-0.54402 -2.76335,-3.30311 -4.38473,-5.02752 1.10049,-1.46178 3.17176,1.7714 5.35912,-0.28528 1.87973,0.49814 2.61024,-1.89938 4.6197,-0.0948 1.56765,0.0382 2.38976,1.77001 1.9922,-0.0691 0.69099,-0.016 -6.19625,-1.67768 -4.80232,-3.82696 -1.21966,0.20069 -0.35218,-5.96409 1.52254,-3.86153 3.53925,1.2611 -0.83129,-1.05736 -0.26976,-1.34761 -0.32907,-2.41549 4.41202,0.31015 2.08797,-1.92648 -3.25751,-0.50449 -2.7216,-3.64894 -0.21743,-5.36449 0.62528,-1.14555 0.11943,-2.59462 0.60885,-3.74901 1.94654,0.8998 4.8054,0.82433 5.29816,3.32579 1.54872,-0.6242 0.47578,-3.42005 1.77505,-0.51832 4.04037,1.00788 0.77589,4.18826 -0.47856,6.72953 1.98469,-0.54541 2.50278,-3.71307 4.66313,-5.06235 -1.32739,-4.28944 7.91286,-0.0282 3.72355,2.81632 -1.68485,3.27132 0.51838,2.03096 1.00055,-0.33698 1.06543,-2.91777 4.98747,-1.74181 5.04566,-1.83138 0.87583,-1.63539 2.1186,-0.003 3.12332,-1.93504 2.23191,2.31044 2.8338,-3.92012 3.5671,0.10366 3.64698,0.55729 6.85354,0.0196 9.63946,-2.88543 2.54788,-0.62473 2.76976,0.82848 4.42817,0.9244 1.85328,-0.23967 6.05956,0.72537 2.70573,-1.96959 0.0306,-1.05129 0.23218,-1.41342 0.55679,-1.44272 0.82934,-0.0528 2.46241,2.12827 4.10634,0.79503 1.91258,0.92882 4.48106,-0.14789 6.17677,0.76019 0.0276,2.95039 -3.92928,5.16602 -3.04481,8.27564 1.27088,0.91085 4.2447,-0.20595 1.8878,2.52246 -1.19599,4.34749 -4.42037,7.27328 -8.79564,8.66458 -2.42762,3.41646 -4.99471,7.01619 -8.58657,9.25172 -2.23079,1.67491 -4.41787,3.09662 -5.57684,5.33878 -2.76948,0.87049 -3.92288,2.95315 -3.34938,5.25227 -0.24165,2.22806 -3.58268,2.39889 -5.61998,1.67602 1.20545,2.19268 4.78479,2.44755 6.8466,1.166 1.75556,0.82985 -0.7553,1.91652 2.1751,0.83815 1.32739,-0.0738 3.19682,-4.34832 2.4794,-0.79503 -1.92539,2.75357 -3.88447,6.11916 -6.41174,7.86983 0.49832,-2.42462 -1.04343,-3.34652 -2.82767,-1.36476 -1.9471,2.29026 -5.43986,0.72205 -6.36803,4.02544 -2.598,1.30809 -3.11164,4.96643 -0.33937,1.54638 2.12583,-3.03029 4.68235,-4.02628 7.46435,-3.12703 3.82127,-2.15205 1.44627,1.10076 -0.0434,2.93684 -0.25279,1.75895 -2.12751,1.75094 -2.95797,3.04963 -3.12388,-0.7649 1.33714,0.88154 -1.28758,2.54818 2.57601,1.22073 4.25167,-2.13961 5.88112,-3.62793 -2.70963,-2.38342 4.75027,-0.10478 6.33351,-1.73657 2.1417,-2.75385 5.13891,-3.04327 8.11692,-3.60222 3.91258,-5.63734 9.70071,0.93988 14.8335,0.0865 2.23273,-1.8206 4.54927,-1.70754 7.18596,-0.6134 3.64253,-0.1855 8.46574,2.16171 11.60577,0.12964 1.86108,-0.006 4.22605,1.17623 6.03758,-0.55287 3.26029,-0.009 5.15756,1.34182 7.1687,3.9392 1.03257,1.14859 0.24777,4.58688 2.10551,6.02103 -1.46075,0.4691 0.93652,2.02543 -1.20936,3.28266 -1.94877,3.60636 -8.50639,9.28489 -7.10801,15.29901 0.65006,3.78936 -4.47688,6.81605 -3.26224,10.99685 -0.89978,3.61826 -4.28229,6.70741 -6.52505,8.24964 -0.63112,2.68778 -0.42232,3.8231 -2.42705,5.66692 1.37138,3.15827 -3.52422,5.29981 -5.75083,7.14418 -0.40535,2.83815 -2.81041,0.46828 -4.70656,1.88335 -3.6701,-0.31237 -7.46074,1.44133 -10.0309,4.69082 -3.30344,0.0133 -2.23162,1.36034 0.47829,0.52689 3.32961,-1.39213 6.46993,-3.85654 9.657,-4.72538 3.25084,-0.1924 1.04872,4.18771 1.41815,4.37099 0.87834,2.47547 7.27505,1.47616 6.21158,5.00181 -2.41091,2.91113 -6.11664,4.61812 -9.53507,2.83345 -2.67678,1.99863 -5.85857,4.32593 -6.50751,7.43776 -3.64114,-0.55619 -6.1751,3.72164 -9.60466,0.99351 -1.91342,-2.42296 -7.42316,0.41963 -3.19292,1.18369 3.05205,5.6e-4 6.26891,1.23179 8.91758,1.40788 2.49303,0.31293 5.20127,0.31265 7.41229,1.84023 2.43569,-0.25819 5.41954,-1.82281 5.33296,-4.28474 1.57126,-2.46967 8.17871,-1.95108 7.95182,1.83995 3.59994,-1.43608 6.66898,4.8354 10.78785,3.80098 1.81306,1.04935 2.48872,2.53394 3.3792,5.37093 -0.77274,1.22661 -2.47107,2.53236 -2.7768,3.13949 -0.29833,0.59249 -0.57734,0.96549 -0.98745,1.37268 -0.33265,0.33033 -0.91537,0.71282 -1.28366,1.07853 -0.34729,0.34485 -0.39944,1.08296 -0.6912,1.37268 -0.43045,0.42742 -0.77377,0.8949 -1.28368,1.27463 -0.50924,0.37924 -0.63057,0.64159 -0.78995,1.27462 -0.11186,0.44432 0.0157,1.04297 0.0987,1.37269 0.12269,0.48735 0.16885,1.02163 0.39496,1.47072 0.27978,0.55564 1.04663,1.13731 1.38243,1.47073 0.2341,0.23247 0.37357,1.17455 0.6912,1.56877 0.25643,0.31829 0.10022,1.18241 0.19749,1.56878 0.1473,0.58508 0,1.09367 0,1.66682 0,0.73971 -0.75701,1.01315 -1.28368,1.27463 -0.4939,0.24521 -0.74054,0.94776 -0.98744,1.27463 -0.37127,0.49155 -0.714,0.40351 -1.28366,0.68634 -0.46177,0.22925 -0.83382,1.00225 -1.38243,1.27463 -0.0589,0.0292 -0.13165,0 -0.19746,0 -0.59232,0 -1.15359,0.75326 -1.48118,1.07853 -0.46665,0.46336 -1.03572,0.72283 -1.67865,0.88243 -0.37467,0.093 -0.94588,0.71216 -1.28366,0.98049 -0.45639,0.36254 -1.04173,0.96944 -1.48117,1.07853 -0.45068,0.11188 -0.47879,0.72504 -0.59246,1.17658 -0.13722,0.54505 -0.25167,0.892 -0.49373,1.37268 -0.25232,0.50107 -0.53244,0.76324 -0.78995,1.27463 -0.33564,0.66658 -0.8458,1.23204 -1.38241,1.76487 -0.52458,0.52088 -0.95818,0.76986 -1.57989,1.07853 -0.70429,0.34966 -0.88121,0.70899 -1.57993,0.88244 -0.41896,0.104 -0.95582,1.30834 -1.28365,1.56877 -0.37403,0.29711 -0.76613,0.36177 -1.28369,0.49025 -0.64279,0.15956 -0.78591,0.68634 -1.5799,0.68634 -0.27873,0 -0.90668,2.08179 -1.13477,2.25165 z m 40.91783,-233.45442 c -0.37111,2.22806 -2.76977,2.72896 -0.85914,-0.0608 0.16454,-0.21065 1.24444,-0.34637 0.85914,0.0608 z m -21.84714,9.14446 c -0.18402,2.07713 -2.69542,2.26262 -1.22939,-0.0301 0.49888,0.053 1.84075,-1.37803 1.22939,0.0301 z m -0.70295,5.69041 c -2.57599,-1.15025 -2.97382,4.67258 -3.41842,1.35232 -1.36053,2.95094 -1.83352,-0.89316 -3.68875,2.34168 -1.84493,3.22184 -1.00418,-2.12164 1.57795,-2.55178 -1.49722,-2.37927 4.06792,-3.30864 0.83519,-0.91665 0.63836,2.49316 5.94737,-5.24811 4.69403,-0.22557 z m -3.98301,8.78731 c 0.20044,1.61244 0.9265,1.97512 -1.59298,2.25764 -0.28062,-3.39683 -1.35802,0.24907 -2.41258,-0.23911 0.7113,-2.02682 2.96603,-2.21314 0.60301,-4.00914 2.00416,-0.25653 2.50612,0.40415 2.09604,1.88584 0.26197,0.31348 1.94933,-0.74969 1.30651,0.10477 z m -7.3079,1.98867 c -0.34716,2.58328 -0.1481,3.42834 -2.96993,2.64299 -0.95768,-1.30228 0.36387,-2.46856 1.87222,-1.61217 0.26753,-0.47878 0.34744,-1.86123 1.09771,-1.03082 z m 3.23274,6.63775 c -0.0376,2.70464 -3.09159,1.50104 -3.87416,4.26843 -1.72272,-1.28625 -4.10384,-1.21493 -3.54955,-4.38757 -3.01002,1.03387 -3.96297,2.32896 -6.83657,2.35136 -2.60162,-1.46871 1.1481,-6.80556 -1.36916,-5.68987 -0.95935,0.48018 0.29093,1.94777 -0.84214,3.15993 -1.99081,2.0893 -2.96408,-3.96739 -1.95713,-5.4137 -1.20267,-4.3743 4.54705,-5.73353 7.0991,-3.01977 1.43597,0.23912 0.6882,2.16034 2.77644,2.73587 -0.56625,1.55219 -2.23886,1.2459 -3.50277,3.4325 0.0417,1.1953 2.505,0.91002 3.05428,-0.47713 1.62528,1.83857 2.39253,-0.80553 3.37166,1.32689 10e-4,1.80097 2.23969,-0.75688 3.10105,0.46192 -1.74109,0.79613 -1.93095,2.69745 0.63447,1.35536 0.0821,-0.92937 1.70489,-0.7989 1.89448,-0.10422 z m -4.9265,5.84246 c -3.18179,1.19502 -1.90868,-1.49635 -0.55679,-0.92054 -0.76754,1.27824 1.03368,0.11777 0.55679,0.92054 z m -0.64978,1.60248 c -1.73608,0.89676 0.31933,6.79781 -2.63641,3.36339 0.55819,-2.03401 -1.64114,-2.47133 0.27004,-3.39296 -5.42509,0.20096 3.92845,-2.55398 2.36637,0.0296 z m -4.33016,3.95524 c -1.35607,1.89662 -0.23414,-1.17817 0,0 z m -1.70156,3.20858 c -1.31153,3.12426 -1.1715,-1.85018 0,0 z m -1.3995,-10.48877 c 0.91314,1.45626 -1.60857,-0.45418 0,0 z m 0,1.51486 c 0.64282,2.2289 -1.60969,-0.36876 0,0 z m 2.15005,1.32053 c -2.06682,2.79227 -1.65618,-2.67091 -0.10885,-0.83096 -1.61693,0.48376 -0.22689,0.28749 0.10885,0.83096 z m -3.24081,-1.30588 c 0.37333,1.59531 0.64616,1.83138 -1.50027,3.07037 0.86414,-0.42765 5.11191,-0.80167 1.87221,0.71126 -3.43123,1.36061 -4.69849,-2.30022 -5.66842,-4.80609 -3.54426,-0.07 1.49248,-5.29207 2.60606,-1.90215 1.53954,0.80636 2.04705,1.46068 2.69042,2.92661 z m -2.0103,-4.16117 c -0.96714,1.13061 -2.04676,-1.39766 0,0 z m 8.39058,-8.24578 c -0.30874,1.27409 -1.71603,-1.15715 0,0 z m 0.10051,-4.77347 c 0.12249,1.70892 -1.84243,3.92316 -3.61136,1.4828 -2.12249,-1.43139 0.96298,-4.51308 1.80957,-1.8723 0.66593,-0.63442 2.55346,-0.74057 1.80179,0.3895 z m 1.43819,0.91389 c -0.39115,3.59946 -2.10607,-1.59641 -0.015,-0.34444 l 0.0846,0.14955 z m -1.1907,1.87091 c -1.73775,1.81756 -2.60857,-0.94734 0,0 z m 0,-12.2784 c -2.34827,2.33504 2.02255,2.17029 2.86108,4.19711 0.94961,1.26441 -1.77004,3.03608 -0.91982,0.42073 -2.23998,-2.60844 -2.25112,-0.12302 -3.46492,-0.54098 -0.647,-1.96186 -3.19793,-3.72441 0.27839,-3.24866 -0.076,-0.92661 1.28007,-2.1949 1.24527,-0.8282 z m 2.29677,-1.20526 c 0.0977,2.52219 -1.67845,3.29096 -0.81933,0.34665 -0.0874,-0.78176 0.62306,-1.90215 0.81933,-0.34665 z m 1.4844,8.04508 c 0.34215,2.3873 -0.87193,-0.20539 0,0 z m 2.50557,0.11998 c -1.9485,1.33352 0.59827,5.34071 -1.7628,3.73214 -1.73441,-2.18466 -0.44015,-1.69924 0.0468,-3.132 -0.52394,-3.2061 0.66287,-2.47935 1.71604,-0.60014 z m 0.10051,-1.48584 c 0.88028,1.85405 -1.72161,-0.93932 0,0 z m -83.1391,160.65701 c 0.53508,2.93214 -2.3544,6.10284 -3.47299,8.85503 -0.79733,-1.28294 -6.08045,1.84216 -4.1829,-1.8253 1.50139,-3.18259 5.58741,-5.65364 7.65589,-7.02973 z m 3.16285,-3.87645 c 0.36693,2.69524 -1.56987,0.16337 0,0 z m -1.37667,-2.04506 c 1.20685,1.29315 -0.95378,5.69925 -0.58017,1.54775 0.30624,-0.33808 -0.44321,-2.52468 0.58017,-1.54775 z m 1.32239,-2.55924 c -0.29872,5.3222 -3.65395,-1.19337 0,0 z m 2.47438,-4.76822 c -1.4844,3.70616 -4.39782,0.37346 0,0 z m -5.17371,10.93244 c 0.5838,3.7468 -4.076,0.51804 0,0 z m -0.30178,-1.20111 c -0.0147,1.65695 -0.97133,-0.48818 0,0 z m -1.46854,-1.50546 c -1.02616,1.36531 -0.86442,-0.71017 0,0 z m -10.81875,6.19435 c -0.81208,2.71569 -2.51615,5.68046 -3.65785,3.64645 0.43291,-2.14099 2.71464,-3.79269 3.65785,-3.64645 z m -2.15061,4.96588 c -2.19014,2.13186 -0.73079,-1.6799 0,0 z m 15.69903,-21.10774 c -0.70072,0.75688 0.0777,3.86594 -1.79454,2.40139 -0.48497,-0.90836 -2.10523,2.34555 0.51838,0.79088 0.27923,2.65101 -7.07795,5.08585 -4.47021,1.51072 -3.12861,2.15011 -6.77282,3.43027 -10.9031,3.41949 -1.19488,3.10824 -5.32489,-3.24562 -1.59382,-2.93435 1.11191,1.5837 1.85105,1.30947 2.05707,0.22143 1.67761,1.2293 8.15116,-2.64411 5.07376,-2.03705 -1.6868,1.19612 -6.50388,1.44935 -3.25611,-1.179 0.0969,-2.78508 5.32321,-2.32012 4.31513,-4.61204 -3.09353,2.48294 -3.93986,-0.813 -6.71992,-1.55853 -3.57823,0.68859 -1.41704,-2.08322 -1.1598,-2.66041 -2.22466,-1.1461 1.86303,-2.13768 2.451,-1.00402 -1.34994,-3.58839 4.79648,-3.04465 5.35106,0.46027 1.05122,2.3649 2.30622,4.04618 4.79537,3.81673 1.51029,0.01 4.04425,2.34306 5.33573,3.36449 z m 6.02394,-5.13256 c -0.53424,1.68846 -5.99582,6.13657 -3.96714,3.42309 0.33992,-0.81548 4.07098,-4.53989 3.96714,-3.42309 z m -25.62051,12.68808 c 0.60996,2.83898 0.78702,0.17941 0,0 z m -0.77255,-1.99365 c -2.54148,4.26317 -1.84103,-1.95163 0,0 z m 6.52643,-6.38177 c -2.76892,1.19447 -3.77421,-2.89649 -0.54927,-0.72261 0.20768,0.19628 0.97828,0.31016 0.54927,0.72261 z m -3.24025,-1.29261 c -2.29621,1.34651 -0.47188,-1.43166 0,0 z m -5.90812,1.668 c -1.15646,1.45239 0.10329,-1.42557 0,0 z m 1.59298,-1.72384 c -0.47605,2.19323 -0.81792,-0.98688 0,0 z m -8.36691,-2.29579 c -1.00779,1.15439 -2.45323,0.55784 -2.777,2.36545 -2.87862,-0.86884 -1.67901,3.35481 -4.35384,1.76531 -1.3285,-2.20347 1.0888,-4.02461 3.58129,-3.94998 1.50417,0.0887 2.85829,-1.86759 3.54955,-0.18078 z m 7.48496,-7.22629 c -0.69293,3.57375 -4.20351,5.22738 -6.62695,5.41536 -0.80595,0.24935 1.84048,-3.05295 3.34883,-3.93422 0.42789,-0.85888 3.56904,-2.72122 3.27812,-1.48114 z m 17.52392,-5.5146 c -2.95073,0.47713 -0.43876,-2.02958 0,0 z m -10.94988,-2.3707 c -2.0451,1.54001 -1.55011,-1.68985 0,0 z m 3.23941,-4.5808 c 1.05819,3.72247 -4.73384,2.34693 -2.24219,0.25321 1.05623,0.26041 0.72494,-3.35259 2.24219,-0.25321 z m -3.9354,-3.66138 c -0.0223,4.10063 -4.1584,2.72261 -5.11247,0.0423 -2.44682,-0.60594 3.12221,-4.91639 4.17595,-2.24272 1.56096,0.42267 0.70379,1.55163 0.93652,2.20042 z m -6.79787,-3.1602 c -2.049,1.27326 -4.97355,0.45888 -1.38391,-0.43788 0.38112,-0.21838 1.49805,-0.22778 1.38391,0.43788 z m 0.61859,0.87519 c -1.68624,0.43759 -0.94988,-1.18757 0,0 z m 9.05567,-27.22275 c 0.6211,2.87161 -0.24889,8.30825 -0.78146,8.87107 1.93625,0.15204 0.60941,2.8036 1.99554,3.94362 1.85384,0.38258 1.02283,2.5186 1.38447,2.51528 2.56792,-0.37955 5.52003,3.3081 8.05817,0.15646 1.11247,0.0923 2.41954,0.052 2.97689,1.14997 0.92845,3.34984 -4.01725,3.25226 -3.80512,5.13063 -0.5593,1.97983 -3.0128,3.73961 -4.16007,5.5403 -2.42093,2.4423 -3.37026,-0.38036 -1.91787,-2.41465 -1.15117,-3.03747 5.00362,-4.06442 4.33101,-4.89566 -2.11052,1.36144 -4.02867,0.0995 -4.83324,-1.51652 0.47105,2.11279 -2.68123,6.44507 -2.16592,1.9132 -0.97912,-1.83304 -5.02644,1.74182 -5.85383,0.29745 3.05456,-1.65308 -4.40506,-0.87602 -1.35329,-2.99075 -0.78062,0.0105 -3.16926,-2.22503 -3.40227,-3.53533 0.701,-3.88169 4.07071,0.47574 4.17594,-0.27007 -1.66927,-1.69869 -1.54955,-3.24673 -3.45713,-2.50312 -0.38112,-1.39849 -1.00612,-2.90948 -1.87166,-1.30975 -0.24665,-3.443 -1.36441,0.74942 -1.42231,2.27727 -2.43207,-1.1519 -4.6701,-1.89496 -5.29761,-4.57168 -2.20016,-1.08252 0.63948,-1.69565 0.78898,-1.76918 -1.82851,-3.03691 1.86191,-2.47326 2.22717,0.0857 2.47327,2.20207 2.04705,0.39198 0.88947,-1.75647 1.04677,-1.03636 2.31848,-0.38425 0.2784,-2.50146 -1.86943,-2.11445 0.4794,-5.18122 1.07433,-1.20222 1.0064,1.92427 4.18986,2.73754 3.91286,2.975 -0.23859,3.54251 0.97271,-3.50299 1.81765,0.21451 3.74665,2.80609 -3.00446,-2.86442 0.0924,-4.33477 -2.48134,-1.47064 -0.81793,-3.67659 0.58018,-5.422 -0.74889,-1.86151 3.71185,1.0441 3.57294,2.87078 1.43596,0.1747 1.74776,2.08736 2.16536,3.05239 z m 8.97827,11.79022 c 0.83074,1.64811 -1.54315,-0.99572 0,0 z m -0.35578,3.42614 c -0.63419,1.34651 -1.01643,-0.73698 0,0 z m -2.2656,-1.26442 c -2.18318,4.87548 -4.91675,-4.63857 0,0 z m -1.04399,-14.08076 c -0.70266,7.27798 -2.63696,0.032 0,0 z m -0.74219,4.43374 c -1.73552,2.46248 -0.85663,5.14446 -0.51058,7.41426 -3.04204,2.80802 -2.57544,-4.36878 -1.25278,-5.68626 1.36803,0.64962 0.97215,-3.34625 1.76336,-1.728 z m -10.70322,-21.17684 c 1.38697,2.96255 -1.92149,-0.83732 0,0 z m -1.78674,8.24633 c 0.804,1.28901 -1.62278,-0.50726 0,0 z m 22.61967,-5.04135 c 1.2539,2.30713 -1.89281,-1.21161 0,0 z m 4.26894,-2.97388 c 1.10049,2.20484 -1.21549,-0.6792 0,0 z m 6.73606,-2.4141 c -0.83658,-1.0007 1.14866,-0.37237 0,0 z m -4.94988,-3.38799 c -2.33964,0.12411 0.20657,-2.36767 0,0 z m -0.76559,1.70919 c -1.53591,-0.30795 0.67761,-0.7038 0,0 z m -1.9716,0.97001 c -1.94126,-0.0973 0.50334,-1.36338 0,0 z m 9.38083,-22.02411 c -1.9123,0.83925 0.65841,-1.77803 0,0 z m -27.85547,-1.7432 c -2.35496,1.47174 0.30484,3.84216 -0.37083,4.20154 -1.9432,1.73849 -4.52644,4.47934 -4.5707,6.00084 2.56904,2.41826 6.19654,-5.18066 5.72298,-0.18963 -1.12945,2.31403 -3.19487,2.09372 -5.03451,1.42806 -1.10524,0.28777 -2.65618,-1.38826 -1.52366,1.1942 1.96381,2.75688 -3.49498,3.49966 -4.29927,4.37651 3.07322,-0.11583 4.24804,-2.10478 4.46937,1.62599 0.84771,3.97016 -4.85996,1.4723 -4.74081,2.30575 3.73273,0.88929 1.00362,4.57029 -0.53285,4.09703 -0.45629,2.6947 -2.8452,-2.92246 -1.96464,0.67948 -2.71381,-0.46855 -2.99833,-4.65682 -2.39727,-6.15371 -2.43624,1.9895 -5.6e-4,5.98094 0.69599,7.42531 -0.42205,1.32025 -5.82432,-0.99461 -2.84604,1.83388 1.50027,1.47864 -0.69877,2.24492 -1.10523,2.40857 -1.75362,-0.28556 -2.46604,2.81024 -3.88251,4.27562 -1.26003,-0.71818 -4.58964,-3.86871 -5.1275,-5.66001 2.15979,0.35771 1.52088,2.80222 2.86942,0.10117 0.64087,-0.99156 3.12612,-1.80124 3.01559,-2.136 -2.60495,-1.84548 1.83045,-1.10049 2.90785,-1.30008 -0.84883,-1.84686 -3.80512,-2.74168 -6.05512,-2.76186 -2.25278,-1.41341 -2.43986,-3.0499 -0.15423,-3.56324 2.44961,-1.06621 -1.00056,-0.76683 -0.0393,-1.59558 -1.40061,-1.20498 -2.5682,-3.80928 -1.09772,-5.74045 -0.0348,-1.31694 3.9421,-0.15176 1.14449,-1.92233 0.0557,-3.08971 2.67428,-0.43566 3.17065,-1.20995 1.96492,1.4452 -1.39031,1.85239 1.86331,2.84092 0.43791,-2.74887 4.68763,1.0897 4.65618,-0.71348 -2.08213,-1.66027 -4.49221,-5.90796 -0.84355,-6.75496 1.29371,-2.06995 4.35635,-1.5602 5.71548,-2.55978 1.29815,-3.65171 6.53562,-5.06264 7.74052,-7.83251 2.06681,1.49773 2.21965,3.06345 2.61386,5.2987 z m -17.22966,10.27508 c -0.21576,2.9034 -4.81904,-4.22364 -1.40701,-1.1226 0.24164,0.41825 0.91926,0.52827 1.40701,1.1226 z m -1.87917,0.62668 c -1.28201,-0.50864 0.18653,-1.00014 0,0 z m -7.66397,10.02712 c -4.25974,0.5725 0.38224,-3.60775 0,0 z m 3.84382,5.88916 c -1.62611,1.43277 -3.8221,0.76684 -1.00557,-0.82377 0.75641,-0.9114 1.00918,0.14651 1.00557,0.82377 z m -6.58852,6.24522 c 0.0501,2.71404 -3.55846,-0.79032 0,0 z m 1.69376,2.5327 c -2.20935,3.75868 -2.88084,-1.6553 0,0 z m -3.65785,0.9631 c -0.13279,2.08653 -1.29788,-1.01894 0,0 z m -10.80372,0.67533 c -0.21576,0.93766 -0.85161,-0.65349 0,0 z m -24.24384,-6.30327 c -1.55512,2.3215 -3.12444,-2.16282 0,0 z m 40.99382,9.7482 c -0.1971,2.29828 -4.61497,-1.72827 -2.91481,0.77429 -0.0312,2.01604 3.12667,0.18826 1.17484,2.85033 -2.70045,0.47242 -4.94404,-1.03968 -4.39226,1.25915 -0.0337,3.7902 -3.04426,-4.48487 -5.25862,-1.64561 -3.10356,-1.20553 -0.72104,-3.21549 0,-4.68723 1.63112,0.24824 2.81932,-0.73919 1.7319,1.06179 1.09688,0.67698 2.9407,-4.71654 2.38223,-1.09027 1.64839,3.73824 2.02033,-3.65667 4.41564,-0.56005 -2.18735,2.61369 3.42038,-0.11196 2.86108,2.0376 z m -9.90644,3.46732 c 1.1907,1.92012 -1.36053,-0.34748 0,0 z m -5.97717,2.30325 c -2.58908,0.0617 1.35022,-0.76627 0,0 z m 1.23748,-0.42902 c -0.22606,1.82502 -1.19878,-0.31735 0,0 z m 6.87443,-0.0144 c -0.004,4.99213 -3.07878,-3.54832 0,0 z m 3.57238,4.58466 c -0.58157,4.87493 -9.14114,-1.82419 -3.41035,-2.66952 1.24637,1.12675 2.78395,1.06455 3.41035,2.66952 z m -0.8814,4.98634 c -1.92233,0.0514 -6.24471,-3.3515 -2.52895,-2.74804 1.95573,0.81742 1.55317,1.43967 2.52895,2.74804 z m 1.26809,2.28916 c -1.20574,1.65086 -1.94404,4.36103 -4.12917,3.19447 0.78842,0.0313 4.44626,3.51432 1.64754,4.08129 -3.62165,0.1537 1.38391,0.51748 1.74694,1.83939 0.012,1.47866 -4.98719,1.06096 -5.14198,-1.28735 -0.99805,-3.94058 -0.50362,-6.35137 0.36304,-10.24495 -1.08464,-3.38412 0.0123,-1.00208 1.70962,-0.19931 1.65396,0.68915 3.34633,1.8358 3.80401,2.61646 z m -1.8711,10.82546 c -0.98413,3.9392 -2.28647,-1.83387 0,0 z m -3.00779,1.8499 c -1.74694,0.59986 -0.21743,-1.51099 0,0 z m -1.39198,0.21175 c -0.25975,1.99751 1.36776,2.73366 -0.0159,4.38425 -1.6676,1.1685 -5.0735,-0.0512 -2.33547,-1.93006 -0.76837,-0.83401 2.1662,-2.46746 1.78619,-2.87769 0.17984,0.15647 0.44905,0.18963 0.56515,0.4235 z m -1.82544,5.52427 c -0.21632,1.43995 -2.99582,0.80305 -1.48441,-0.64741 0.18179,0.40277 2.27115,0.3038 1.48441,0.64741 z m -0.14672,2.37679 c -2.5966,0.81769 0.16425,-1.80319 0,0 z m -1.74833,2.00857 c -2.78674,0.29745 0.25474,-1.22958 0,0 z m -1.6932,1.27713 c -0.91982,4.24936 -2.23998,-0.67754 0,0 z m 7.94208,-9.80431 c 1.07099,1.27492 -1.65061,-0.37263 0,0 z m 4.03674,-19.24954 c -1.9045,1.66331 -0.025,-2.84866 0,0 z m -0.50306,-4.73643 c -0.13446,1.81175 -2.58853,-1.70533 0,0 z m 1.21409,-0.44285 c -0.14477,3.2564 -1.79454,-1.40677 0,0 z m -1.07489,-2.53049 c -0.14588,4.17002 -3.42733,-0.30269 0,0 z m 1.91008,-0.14292 c 0.1417,3.92511 -4.03062,0.55481 0,0 z M 780.09139,34.075843 c -1.16314,-1.128407 -2.76698,5.515702 -2.26559,2.047275 1.33686,-2.13159 -0.3363,-2.865523 -1.00556,-0.566693 -0.85412,1.451004 -0.50696,5.043275 -1.32239,5.643696 -0.85579,2.9338 2.84354,1.620733 3.73497,1.694545 -1.19376,-1.798763 0.92734,-3.820886 0.51893,-4.930772 0.60245,-1.332415 1.429,-1.869251 0.951,-3.541402 -0.16704,-0.06579 -0.70267,-0.02654 -0.61136,-0.346649 z m -5.01113,12.32816 c 1.25501,0.830962 -2.36971,1.663861 -0.0612,0.04699 z m 5.90089,1.799039 c 0.23134,-1.412308 -1.5039,-2.017701 -2.93152,-1.783559 -3.97855,-2.425439 0.72606,6.123034 0.23218,1.783559 1.39923,-0.345822 2.098,2.502287 2.69934,0 z m 0.61107,9.3728 c -1.08713,-1.373611 -1.68234,2.327578 0,0 z m -4.67121,2.658192 c 0.98414,-2.75163 -5.71881,3.454607 -1.58573,2.157577 0.73189,-0.584109 0.88168,-1.543892 1.58573,-2.157577 z m -2.71435,12.877715 c 0.19766,-1.98646 -1.26866,1.30201 0,0 z m -0.97439,0.44728 c 1.1108,-2.85641 -3.33992,-3.73077 -1.8711,-0.47824 -0.4897,1.82641 2.15617,3.3432 1.8711,0.47824 z m -4.16091,-18.551544 c -0.17845,-3.658062 -2.14671,1.719699 -2.32767,-0.748032 -1.1971,1.628754 2.76948,2.463865 -0.96631,2.647413 -1.228,3.413973 -1.88085,0.606503 -0.21687,-1.120664 0.92706,-2.216459 -0.2397,-1.47506 -0.32405,-2.274781 -0.0869,-2.396967 0.32377,-2.014379 0.62638,-4.636364 1.14672,-1.390469 -0.42315,-5.11045 -0.37889,-1.641751 -0.0846,0.719288 -3.79204,-1.237596 -2.85356,1.813693 -3.23246,1.361995 0.5554,3.378034 0.64922,3.918741 -2.83936,0.813267 -3.70545,-5.792696 -4.26141,-0.670908 -2.41704,0.63801 -1.29148,3.323296 0.42567,1.839949 2.12444,-1.091088 0.61971,3.109063 2.26587,0.327297 0.55177,-0.697716 0.18874,4.08073 1.84047,3.595863 -0.98246,2.793649 1.83741,0.622256 1.53118,2.486532 3.28312,0.931586 0.95601,0.277816 0.30957,1.335178 -1.18262,-0.07906 -0.35857,2.49925 -1.12193,3.163244 -1.21019,-3.6846 -2.90172,-0.520252 -2.90729,0.32509 -0.32962,-4.608998 -2.47355,1.608298 -3.59632,-1.518457 -5.12277,-0.202351 -1.25724,7.477561 1.45461,4.830145 0.66788,2.334216 1.51894,-3.258061 1.85579,0.29385 -1.3182,0.655706 -1.54314,2.383416 0.81181,3.613826 0.57711,-2.23276 1.38391,-1.17346 1.91007,-2.99572 2.69488,1.31887 -3.09158,-4.749426 0.82767,-2.133801 0.51754,3.779141 0.71994,0.703251 2.22717,0.09288 -0.72077,1.452113 -2.03646,5.919021 -0.093,3.014251 -0.20017,3.10823 0.53341,5.71252 -0.78842,9.21302 -1.40144,2.50035 -0.55039,3.57264 -1.77171,6.01412 -0.65006,1.58397 2.40896,1.56931 1.89504,2.52551 1.97271,1.86289 0.0225,-3.4032 1.3995,-4.54847 -0.18347,-2.92827 0.36247,-1.74402 1.42316,-2.28611 -1.90646,-2.6394 2.2049,-2.43788 -0.1083,-4.78122 -0.3402,-2.43815 0.84104,-2.87575 2.05707,-4.14542 -1.3736,-1.26247 0.15757,-3.3197 -1.92538,-1.43552 1.92371,-3.206095 -0.63837,-0.88459 0.31681,-2.441199 -1.43374,-0.529098 -0.022,-1.358955 -0.0846,-2.692199 -0.18625,2.67561 3.70461,0.665933 1.87081,-0.433448 -1.88,0.04617 3.40507,-3.100771 -0.4947,-2.94514 -2.82406,-1.295646 3.92121,-0.224463 1.91007,-3.353706 -3.26948,1.970981 0.25334,-1.127298 0.88141,-3.017558 -1.93346,0.456395 -2.33993,2.522187 -3.17038,3.064277 -0.19766,-1.90021 -2.03758,-0.486525 -1.81736,-1.243958 1.82293,-0.811889 2.3104,-1.034694 0.71881,-3.050456 z m -23.091,18.582224 c -1.65758,-5.034708 -3.24053,3.396 0,0 z m 12.89864,-3.78163 c -2.65312,-0.67561 0.85802,1.73656 0,0 z m -3.92789,-7.943908 c -1.74972,1.626266 3.69404,0.993505 0.17762,0.0622 z m 9.31096,0.620598 c -1.09103,-1.806778 -0.52505,2.290261 0,0 z m -0.36387,-2.157577 c -4.21074,-2.484594 -1.08268,4.28806 0,0 z m 10.57098,-19.880637 c -2.24999,-0.259293 -3.78451,-0.717623 -3.20851,2.542097 -0.53953,2.007193 0.39448,6.156756 -0.78146,2.209819 -2.10885,0.210921 -1.1211,6.738651 0.348,8.671481 1.25333,-1.05321 0.25946,-1.265791 2.83769,-0.701587 -0.40646,-2.83346 1.31068,-4.311002 -1.14449,-6.153992 3.08129,1.113204 -1.50223,-5.421994 1.64003,-1.612443 1.34103,-0.258745 -0.10106,-3.833598 0.30874,-4.955375 z M 600.45632,209.68 c -2.13864,1.7338 -0.94042,-0.18633 -1.13698,-1.00319 0.16315,0.70353 1.30263,0.24327 1.13698,1.00319 z m 86.46063,-36.80785 c 0.40173,-0.008 1.08686,0.33199 1.80067,1.3736 l -0.28702,-0.026 c -2.06877,-0.3461 -2.18347,-1.33408 -1.51365,-1.34763 z m -4.67203,3.33463 c -3.272,4.05558 -1.77172,0.58604 0,0 z m -11.04871,3.55025 c 3.30094,1.85239 6.62053,4.1562 8.63028,7.38606 -0.38391,0.17969 -0.61498,-0.38783 -0.82656,-0.59599 -1.88168,-2.32288 -7.8956,-6.61315 -7.80372,-6.79007 z m 16.52113,11.27329 c 0.46994,-0.0791 4.68597,1.83249 1.81821,1.27879 -1.61191,-0.91251 -2.00223,-1.247 -1.81821,-1.27879 z m -7.60383,2.24631 c 0.13169,0.002 0.49137,0.35135 1.14838,1.26109 0.27144,2.07299 5.63029,0.34472 2.92317,1.51183 -2.10997,1.55936 -4.54148,-2.78232 -4.07155,-2.77292 z m -30.17117,6.48737 c 0.19515,-0.0627 0.54844,0.34775 0.92232,1.5895 0.21019,0.33532 1.7848,1.61604 0.53063,1.40816 -1.63725,-1.03857 -1.82545,-2.87741 -1.45295,-2.99766 z m -3.81041,1.33905 c 0.042,-0.007 1.30011,1.40015 2.48802,2.23746 0.83631,0.63995 6.80094,4.39836 4.22829,3.54169 -1.89087,-2.19296 -5.52812,-0.94817 -5.5941,-4.3193 -0.8285,-1.06371 -1.1442,-1.45598 -1.12221,-1.45985 z m 15.73801,5.40762 c 0.32043,0.01 0.79761,0.0539 1.47021,0.15563 0.53146,0.41907 3.11135,-0.72951 2.35773,0.29385 -1.75946,0.84008 -5.36998,-0.35107 -4.09771,-0.44064 0.0735,-0.005 0.16286,-0.01 0.26977,-0.009 z m 40.12383,0.0605 c 0.38001,-0.0116 0.6314,0.28721 0.3132,1.19226 -2.60857,0.33449 -1.14922,-1.16655 -0.3132,-1.19226 z m -21.38416,7.53285 c 0.60273,0.59848 4.04677,-0.10284 2.98385,0.8293 -2.17121,1.20636 -7.91397,-0.48321 -2.98385,-0.8293 z m -19.40949,3.54196 c 0.92956,-0.0979 2.71992,1.45183 1.679,1.32163 -1.48858,-1.09468 -6.03061,-0.15895 -2.00974,-1.16628 0.0871,-0.091 0.19795,-0.14153 0.33074,-0.15535 z m 20.10548,2.34969 c 0.41621,-0.0113 0.17679,0.56393 0.2088,0.76877 -3.375,3.61881 -5.85411,9.49056 -9.66563,11.71393 3.39698,-4.06941 6.24693,-8.4614 9.45683,-12.4827 z m -15.22492,15.58402 c 0.32071,0.007 0.67733,0.0453 1.05261,0.1208 0.0891,0.32259 -0.30567,0.29523 -0.46102,0.44063 -3.549,0.77816 -2.83658,-0.60871 -0.59159,-0.56143 z m -10.70962,0.11222 c 0.82489,-0.0525 1.58017,0.28695 2.25334,0.95896 -1.33825,-0.45031 -5.26085,1.26856 -4.8981,0.42322 0.93095,-0.8857 1.82015,-1.32965 2.64476,-1.38218 z m 11.98857,3.49 c 0.11832,0.002 0.13224,0.16669 -0.0175,0.57001 -0.75668,1.96821 -5.49303,5.5403 -2.39226,1.87478 0.24304,-0.40941 1.98664,-2.45308 2.4098,-2.44479 z m -26.1258,2.50505 c 1.7525,0.93905 6.43178,0.009 6.78591,0.69994 l -0.14784,0.0862 -0.20879,0.0431 c -1.89003,0.37844 -8.43624,0.70712 -6.42928,-0.8293 z m 42.07261,2.19434 c 0.20461,0.004 -0.0571,0.46828 -0.2784,0.47519 -2.12082,2.44672 -3.94599,6.93271 -4.94153,8.76824 0.27032,-3.10824 3.02477,-6.54432 5.0025,-9.15718 0.10384,-0.0542 0.1701,-0.0874 0.21743,-0.0863 z m 49.23267,10.43539 c 0.74527,0.006 2.38446,0.7812 0.56542,1.08859 -1.13891,-0.81962 -1.01252,-1.09219 -0.56542,-1.08859 z m -60.77748,0.0777 c 0.43346,-0.0243 0.66787,0.0749 0.37416,0.41465 -2.34576,1.10961 -8.33824,-0.0293 -2.70572,0.0777 0.33268,-0.0804 1.6094,-0.45169 2.33156,-0.49233 z m 12.99775,0.73449 c 0.48497,-0.009 0.77784,0.12965 0.56543,0.57 -2.48413,0.45723 -8.84966,0.52966 -3.13196,-0.12107 0.41649,-0.0396 1.75807,-0.4434 2.56653,-0.44893 z m 6.04621,6.0987 c -0.10496,0.1772 -0.30568,0.26842 -0.43485,0.42323 -2.76614,1.36669 -4.1495,5.1204 -7.45573,5.01038 3.30623,-0.72177 4.97689,-5.28405 7.89058,-5.43361 z m -22.83711,0.69966 c 0.29343,-0.002 0.66843,0.0945 1.14838,0.34554 -1.76112,2.59434 -2.73189,-0.33227 -1.14838,-0.34554 z m -6.98579,0.61341 c 0.0579,0.009 0.10301,0.0644 0.12166,0.19019 -0.76587,1.96794 -3.58797,6.06387 -4.8285,5.12261 1.84687,-0.52384 4.14421,-5.39988 4.70684,-5.3128 z m 26.88248,7.97348 c 0.67678,-0.0152 0.96882,0.073 -0.29566,0.36269 -2.23802,0.92578 -6.206,0.0124 -1.72271,-0.0951 0.28174,-0.1255 1.34159,-0.25266 2.01837,-0.26759 z m -26.49996,0.19848 c 0.21213,-0.0113 0.37388,0.0929 0.38307,0.41466 -1.48775,2.30934 -5.02143,2.86746 -5.75083,5.6929 -0.33352,1.6047 -3.853,4.91832 -4.18457,3.96518 4.08156,-2.15647 3.73914,-7.59699 8.52588,-8.83735 -0.15061,-0.51693 0.56013,-1.19447 1.02645,-1.23539 z m 12.51056,4.95013 c 1.1985,1.79157 4.41954,1.19502 4.83713,2.74692 -0.14477,-0.009 -0.25167,-0.23248 -0.40896,-0.15535 -1.62945,0.20512 -5.13334,-1.80595 -4.42817,-2.59157 z m -2.27951,1.05377 c 0.0604,-0.0329 0.16342,0.0669 0.32211,0.36295 -0.57378,4.19877 2.72688,7.41288 4.53257,9.72692 -1.49277,0.21451 -1.87417,2.61451 -2.22717,2.49648 -1.52367,-2.40416 -0.89116,-6.46278 -2.60997,-9.36395 0.21576,-0.41189 -0.27812,-3.07922 -0.0175,-3.2224 z m -6.99303,26.6718 c -0.80262,2.93049 -1.11637,-1.59751 0,0 z m -6.16258,-9.39049 c 2.21548,2.15398 4.92678,4.82849 3.89755,7.94447 0.80067,3.47976 -1.08853,-0.69192 -2.71436,-1.22848 0.80818,-2.67478 -4.38975,-4.7345 -1.18319,-6.71599 z m 0.17706,5.70534 c 1.49388,3.02392 -1.48886,-0.22446 0,0 z m 2.63781,13.32831 c 1.54983,2.46994 -1.36024,-0.15177 0,0 z m -5.63057,-9.22048 c 3.86972,0.40663 3.21966,5.14223 4.22272,6.87189 1.2834,1.64174 -0.70936,2.65322 0.8118,3.7996 0.70879,2.22364 -0.81124,3.75619 -3.50334,3.3186 -4.92148,-0.88128 -3.43763,-5.6249 -5.28117,-9.116 0.0279,-2.67119 2.25028,-4.42129 3.74999,-4.87409 z m -8.26641,21.48644 c -2.02672,1.66358 -1.0412,-1.2387 0,0 z m -4.61636,-21.92294 c 0.86804,1.49828 -1.45462,5.74902 -1.24583,2.20789 0.79427,-0.76268 0.31682,-2.26594 1.24583,-2.20789 z m -11.3839,-9.4314 c -0.69264,4.30188 2.90562,7.91129 2.97773,11.88421 -1.35189,1.48667 -3.13419,2.88156 -5.47494,2.58577 -0.37416,4.61701 -5.85133,0.52993 -1.74832,-1.21078 1.51308,-2.02682 -4.03035,-4.27313 0.3633,-5.38274 -0.35969,-2.13961 -3.71102,0.2933 -3.61107,2.5092 -2.21465,3.55937 -5.04343,1.04741 -2.25056,-1.6224 1.30986,-1.47063 -0.31542,-2.53435 0.52645,-4.4108 0.0593,-1.25417 3.62082,-2.59959 3.47187,-1.96959 -0.55233,3.37057 0.36081,2.06386 1.01281,-0.10975 0.99054,-0.68583 4.91341,-4.61977 4.73273,-2.27312 z m 7.87304,-2.00166 c 0.0919,4.08957 -2.82321,3.89054 -3.12499,7.91212 -5.55539,1.88473 -4.86497,-9.6849 1.57043,-7.62408 0.41092,-0.0354 1.43541,-0.84036 1.55456,-0.28804 z m 26.51723,8.43098 c 0.82461,3.44078 -3.18847,1.61963 -0.19376,-0.32785 l 0.12416,0.0956 0.0696,0.23221 z m 14.5565,24.56483 c 0.23998,-0.0107 0.74081,0.33227 0.72216,0.65653 -0.69349,3.13671 -1.04037,2.49013 -0.7049,-0.17277 -0.21381,-0.34112 -0.16119,-0.4774 -0.0173,-0.48376 z M 564.12563,198.02546 c -1.55512,2.3215 -3.12444,-2.16282 0,0 z"
       inkscape:connector-curvature="0" />
  </g>
</svg>
