<?xml version="1.0" encoding="UTF-8" standalone="no"?>
<!-- Created with Inkscape (http://www.inkscape.org/) -->

<svg
   xmlns:dc="http://purl.org/dc/elements/1.1/"
   xmlns:cc="http://creativecommons.org/ns#"
   xmlns:rdf="http://www.w3.org/1999/02/22-rdf-syntax-ns#"
   xmlns:svg="http://www.w3.org/2000/svg"
   xmlns="http://www.w3.org/2000/svg"
   xmlns:sodipodi="http://sodipodi.sourceforge.net/DTD/sodipodi-0.dtd"
   xmlns:inkscape="http://www.inkscape.org/namespaces/inkscape"
   version="1.0"
   width="90.928535mm"
   height="150.51758mm"
   id="svg2116"
   inkscape:version="0.92.2 (5c3e80d, 2017-08-06)"
   sodipodi:docname="wales.svg">
  <metadata
     id="metadata400">
    <rdf:RDF>
      <cc:Work
         rdf:about="">
        <dc:format>image/svg+xml</dc:format>
        <dc:type
           rdf:resource="http://purl.org/dc/dcmitype/StillImage" />
        <dc:title />
      </cc:Work>
    </rdf:RDF>
  </metadata>
  <sodipodi:namedview
     pagecolor="#ffffff"
     bordercolor="#666666"
     borderopacity="1"
     objecttolerance="10"
     gridtolerance="10"
     guidetolerance="10"
     inkscape:pageopacity="0"
     inkscape:pageshadow="2"
     inkscape:window-width="3840"
     inkscape:window-height="2004"
     id="namedview398"
     showgrid="false"
     units="mm"
     inkscape:zoom="1.5999999"
     inkscape:cx="237.8355"
     inkscape:cy="259.40037"
     inkscape:window-x="-16"
     inkscape:window-y="-16"
     inkscape:window-maximized="1"
     inkscape:current-layer="svg2116"
     fit-margin-top="0"
     fit-margin-left="0"
     fit-margin-right="0"
     fit-margin-bottom="0" />
  <defs
     id="defs2118" />
  <path
     id="path4780-2-13"
     style="fill:#aebcab;fill-opacity:1;fill-rule:nonzero;stroke:#000000;stroke-width:1.47793651;stroke-linecap:butt;stroke-linejoin:miter;stroke-miterlimit:4;stroke-dasharray:none;stroke-opacity:1"
     d="m 170.40686,379.75003 c -0.96209,-0.0156 -1.85364,0.35146 -2.58789,1.2207 -0.24578,0.0799 -0.48908,0.16097 -0.77344,0.22852 0.28315,-0.0673 0.5266,-0.14689 0.77149,-0.22657 -0.16549,0.19617 -0.32647,0.40846 -0.47461,0.65821 -3.30983,2.24057 1.92236,12.33529 1.33593,9.10156 1.55764,1.46068 2.17778,3.25456 4.44532,3.08594 6.6954,-6.10811 0.82502,0.71093 0.14648,0.54883 5.6e-4,2.7063 -1.85214,5.33365 -4.35742,7.11914 -3.35635,1.76476 -6.29675,4.03796 -7.61328,7.71289 0.96659,0.85086 1.61925,-0.86704 3.04492,-0.49219 1.83379,-2.32343 3.24068,1.85882 4.4375,0.54492 -0.50473,-3.85543 4.69333,-5.54593 8.30078,-5.29492 3.78313,1.06952 -0.0648,4.86873 2.54883,6.61719 0.50974,2.43041 2.77601,1.39404 2.92187,1.64062 -2.78867,1.41673 -5.17398,6.45213 -1.24414,8.34571 2.88251,-1.36366 2.91073,0.48215 0.16602,0.93164 -1.43207,0.87243 -1.04895,5.87127 -2.60156,8.18945 -1.65646,4.2676 -6.02147,5.49438 -9.01367,7.87891 -1.10273,2.54015 -5.76681,0.22713 -6.68165,2.28906 -1.24608,-0.0467 -1.87942,2.75701 -3.98437,3.11914 0.45517,2.75523 -2.48958,-0.01 -3.07813,1.875 -0.75387,-0.17415 -4.50196,-2.27931 -3.75976,0.73437 -1.03647,2.03982 -4.62748,2.3175 -5.98438,3.8086 -1.48023,3.2951 3.10547,0.0509 4.85352,2.33203 1.28897,2.82765 -0.11253,3.80453 -2.14062,4.86328 -2.37473,0.31403 0.48015,1.15913 0.83593,2.60156 -0.0215,-3.0817 3.92846,0.0776 6.125,-1.17578 4.54816,-0.732 -1.65579,1.52581 -2.57617,1.0625 -0.79148,0.34914 -3.56035,0.0213 -0.47852,1.22656 -0.008,1.76642 2.21126,3.01933 3.97657,2.28125 1.21241,-2.55121 4.24276,-0.85719 5.87304,-2.32421 -0.1765,-4.13879 4.58791,-3.0983 7.59375,-3.64454 -1.28619,-2.73863 0.66481,0.1139 1.49805,-1.64257 -0.10412,0.94927 3.09165,3.27581 0.39844,2.24609 -0.84939,1.66331 2.8085,3.1065 4.63867,2.08203 1.08379,2.26594 4.85612,-1.0378 3.14844,1.48633 -2.55067,2.13048 -4.26853,-0.66976 -5.82031,1.73633 -0.28369,2.07962 1.23691,3.65613 3.24609,2.92773 1.41092,-1.37471 3.86762,-0.65617 5.55859,-0.76758 -2.30011,-2.31597 3.16108,-3.28067 3.94922,-2.20312 2.54844,1.32357 1.69288,6.51155 4.72461,5.98633 3.06932,4.48184 9.33528,5.02754 13.78906,3.04882 -0.4524,-3.11845 3.15466,-4.29828 5.0625,-6.53906 1.35719,1.30145 4.40777,0.10367 6.58594,-1.04492 0.2294,-0.49205 0.39258,-1.01953 0.39258,-1.01953 0,0 0.88757,-6.45718 0.34766,-9.29102 -0.24438,-1.28262 -1.25588,-0.17343 -2.65235,-1.38672 -1.39646,-1.21328 -1.43376,-3.09447 -2.93359,-3.46679 -0.41893,-0.104 -2.23341,1.00535 -2.65235,0.83203 -1.52007,-0.62891 -1.74663,-1.66426 -2.93359,-4.29883 -1.18697,-2.63457 -2.19847,-5.13095 -1.81445,-6.24023 1.2976,-3.74828 4.02876,-7.10766 5.02734,-9.28907 0.17456,-0.38131 -0.73417,-0.24265 -2.6543,0 -2.22129,0.28073 -5.02734,-4.57617 -5.02734,-4.57617 0,0 0.41897,-1.00542 1.95508,-1.66406 1.5361,-0.65865 3.92567,-0.60399 4.18945,-0.9707 0.41417,-0.57579 0.87279,-2.77348 0.2793,-3.05078 -0.59348,-0.27732 -2.30325,1.97606 -2.65234,1.9414 -0.90388,-0.0897 -1.60692,-1.10945 -0.97852,-2.08008 1.30412,-2.01435 5.11289,-6.04499 4.60937,-6.79492 -0.13964,-0.20799 -4.47151,-2.6131 -4.60937,-2.91211 -0.34223,-0.74223 0.55862,-4.43567 1.39648,-6.09961 0.83786,-1.66393 1.0474,-0.17336 1.95508,-0.55468 0.90768,-0.38133 1.01247,-1.00538 1.67578,-0.97071 0.66331,0.0347 0.036,0.83206 0.97852,1.10938 0.94262,0.27732 1.74562,-0.48532 2.79297,0 1.04735,0.48531 0.62844,1.80274 1.39648,1.9414 0.76804,0.13866 1.67578,-1.38672 1.67578,-1.38672 l -0.41992,-2.91211 -2.51367,-0.41601 c 0,0 -1.04642,-3.01626 -2.09375,-4.85352 -1.04736,-1.83726 -1.57105,-1.66412 -1.67578,-2.49609 -0.10473,-0.83197 1.92015,0.0346 1.39648,-1.10938 -0.52366,-1.14395 -2.93554,-3.12109 -2.93554,-3.12109 0,0 1.03947,0.74601 -0.27344,-0.19141 -1.31293,-0.93738 -1.92051,-0.83723 -3.5586,-2.41015 -1.31254,-1.88641 -2.70127,-2.44901 -4.14648,-2.37305 -3.17946,0.16711 -6.62905,3.42255 -10.12109,2.4668 -1.39504,-0.95896 -6.33697,-3.62152 -3.54883,-0.29297 -2.07499,1.06298 -2.36124,1.59557 -5.40338,1.74307 0.78067,-1.15225 -2.8022,-0.70331 -3.62397,-2.08291 -0.81811,-1.36061 -1.971,-2.73816 -3.24804,-3.82422 0.10133,0.15196 0.19641,0.30981 0.28906,0.4707 -0.0995,-0.17286 -0.21065,-0.33368 -0.32031,-0.49609 -1.02602,-0.86735 -2.12364,-1.5304 -3.19141,-1.8418 -0.40047,-0.11679 -0.79694,-0.20081 -1.18164,-0.20703 z m 4.37305,2.04883 c 0.0103,0.009 0.0209,0.0166 0.0312,0.0254 -0.0592,-0.0888 -0.11874,-0.17682 -0.18164,-0.26172 0.0548,0.074 0.0984,0.15928 0.15039,0.23633 z"
     inkscape:connector-curvature="0"
     sodipodi:nodetypes="ccccccccccccccccccccccccccccccccccccccccccccccssscsscscssccsccssccssccccsscccscccccccscccccc" />
</svg>
